M48
;GenerationSoftware,Autodesk,EAGLE,9.1.1*%
;CreationDate,2018-07-18T15:36:24Z*%
FMAT,2
ICI,OFF
METRIC,TZ,00.00000
T4C0.30000
T3C0.60960
T2C1.01600
T1C3.20000
%
G90
M71
T1
X254000Y254000
X254000Y2921000
X8382000Y254000
X8382000Y2921000
T2
X8191500Y1066800
X8191500Y812800
X1066800Y254000
X1066800Y508000
X5588000Y1651000
X5334000Y1651000
X5080000Y1651000
X4826000Y1651000
T3
X6096000Y304800
X3937000Y508000
X3822700Y1574800
X3937000Y1955800
X7556500Y2286000
X7086600Y1409700
X5727700Y2908300
X6451600Y3048000
T4
X5080000Y1016000
X5207000Y1016000
X5207000Y889000
X5080000Y889000
X3683000Y1397000
X3937000Y1397000
X3683000Y1143000
X4318000Y1524000
X3035300Y2082800
X2794000Y1778000
X2667000Y1651000
X3175000Y1663700
X2921000Y1397000
X3683000Y2159000
X3683000Y2540000
X3429000Y2413000
X2476500Y444500
X2540000Y241300
X2273300Y241300
X1270000Y508000
X1270000Y254000
X1981200Y241300
X7112000Y1651000
X7493000Y1651000
X7493000Y1397000
X7747000Y2794000
X7747000Y3048000
X8001000Y3048000
X8001000Y2794000
X8509000Y2667000
X8509000Y1143000
X8509000Y762000
X8509000Y508000
X8001000Y508000
X8001000Y254000
X7747000Y508000
X7747000Y254000
X4318000Y1905000
X5842000Y508000
X647700Y2921000
X6146800Y1397000
X254000Y1143000
X635000Y2667000
X635000Y508000
X635000Y254000
X254000Y1778000
X254000Y1397000
X1524000Y2921000
X2794000Y2908300
X2159000Y2540000
X1016000Y2540000
X4953000Y2540000
X4699000Y1917700
X6477000Y2413000
X6731000Y2413000
X6477000Y2286000
X6604000Y2286000
X6858000Y508000
X6858000Y254000
X6858000Y381000
X6985000Y381000
X6096000Y127000
X7493000Y101600
X6299200Y101600
X4191000Y228600
X6096000Y2667000
X6096000Y2413000
X6311900Y1943100
X2019300Y1943100
X1511300Y1143000
X1930400Y977900
X5321300Y2921000
X4826000Y1066800
X4203700Y2235200
X1993900Y609600
X4826000Y952500
X4076700Y2235200
X1993900Y508000
X2006600Y1054100
X5168900Y2082800
X2171700Y762000
X3949700Y787400
X1803400Y241300
X2654300Y2159000
X1524000Y241300
X2260600Y2235200
X4889500Y292100
X1905000Y152400
X7289800Y622300
X7200900Y622300
X7112000Y622300
X6781800Y1930400
X6781800Y2019300
X6781800Y2108200
X1384300Y1409700
X1346200Y2171700
X4495800Y228600
X4191000Y1143000
X3390900Y711200
X254000Y2032000
M30