G04 EAGLE Gerber RS-274X export*
G75*
%MOMM*%
%FSLAX25Y25*%
%LPD*%
%AMOC8*
5,1,8,0,0,1.08239X$1,22.5*%
G01*
%ADD10C,1.879600*%
%ADD11C,1.524000*%
%ADD12C,1.219200*%
%ADD13C,0.609600*%
%ADD14C,0.508000*%
%ADD15C,0.655600*%
%ADD16C,0.254000*%

G36*
X4043909Y43268D02*
X4043909Y43268D01*
X4044606Y43257D01*
X4045481Y43466D01*
X4046373Y43579D01*
X4047021Y43835D01*
X4047700Y43998D01*
X4048495Y44418D01*
X4049331Y44749D01*
X4049895Y45158D01*
X4050512Y45485D01*
X4051178Y46090D01*
X4051905Y46618D01*
X4052350Y47154D01*
X4052867Y47624D01*
X4053361Y48375D01*
X4053935Y49068D01*
X4054233Y49699D01*
X4054615Y50281D01*
X4054908Y51131D01*
X4055291Y51945D01*
X4055423Y52629D01*
X4055649Y53289D01*
X4055721Y54187D01*
X4055890Y55069D01*
X4055847Y55765D01*
X4055903Y56460D01*
X4055750Y57347D01*
X4055694Y58244D01*
X4055480Y58907D01*
X4055361Y59595D01*
X4054992Y60416D01*
X4054715Y61271D01*
X4054342Y61861D01*
X4054056Y62496D01*
X4053497Y63198D01*
X4053015Y63959D01*
X4052506Y64439D01*
X4052072Y64983D01*
X4051355Y65523D01*
X4050699Y66141D01*
X4050088Y66478D01*
X4049532Y66898D01*
X4048077Y67613D01*
X4029468Y75320D01*
X3885320Y219468D01*
X3876039Y241874D01*
X3876039Y434384D01*
X3875916Y435361D01*
X3875887Y436348D01*
X3875717Y436935D01*
X3875641Y437540D01*
X3875279Y438455D01*
X3875005Y439405D01*
X3874695Y439932D01*
X3874471Y440498D01*
X3873892Y441296D01*
X3873391Y442146D01*
X3872724Y442904D01*
X3872602Y443072D01*
X3872506Y443152D01*
X3872320Y443363D01*
X3859481Y456202D01*
X3845559Y489812D01*
X3845559Y502634D01*
X3845385Y504016D01*
X3845255Y505396D01*
X3845187Y505587D01*
X3845161Y505790D01*
X3844650Y507081D01*
X3844180Y508390D01*
X3844065Y508559D01*
X3843991Y508748D01*
X3843178Y509868D01*
X3842395Y511023D01*
X3842241Y511158D01*
X3842122Y511323D01*
X3841053Y512208D01*
X3840011Y513129D01*
X3839830Y513221D01*
X3839672Y513352D01*
X3838413Y513945D01*
X3837178Y514577D01*
X3836979Y514621D01*
X3836795Y514708D01*
X3835433Y514970D01*
X3834075Y515275D01*
X3833870Y515269D01*
X3833671Y515308D01*
X3832290Y515222D01*
X3830895Y515181D01*
X3830698Y515124D01*
X3830496Y515111D01*
X3829181Y514686D01*
X3827839Y514299D01*
X3827662Y514195D01*
X3827469Y514132D01*
X3826293Y513389D01*
X3825098Y512685D01*
X3824887Y512499D01*
X3824780Y512432D01*
X3824636Y512278D01*
X3823880Y511614D01*
X3421486Y109219D01*
X1956544Y109219D01*
X1955566Y109096D01*
X1954579Y109067D01*
X1953992Y108897D01*
X1953388Y108821D01*
X1952472Y108459D01*
X1951523Y108185D01*
X1950996Y107875D01*
X1950430Y107651D01*
X1949632Y107072D01*
X1948781Y106571D01*
X1948024Y105904D01*
X1947855Y105782D01*
X1947776Y105686D01*
X1947564Y105500D01*
X1940835Y98770D01*
X1917583Y89139D01*
X1892417Y89139D01*
X1869165Y98770D01*
X1851370Y116565D01*
X1841739Y139817D01*
X1841739Y164983D01*
X1851370Y188235D01*
X1869165Y206029D01*
X1892417Y215660D01*
X1917583Y215660D01*
X1940835Y206029D01*
X1947564Y199300D01*
X1948342Y198697D01*
X1949061Y198019D01*
X1949596Y197724D01*
X1950077Y197350D01*
X1950982Y196958D01*
X1951846Y196481D01*
X1952438Y196328D01*
X1952997Y196086D01*
X1953969Y195932D01*
X1954926Y195684D01*
X1955934Y195619D01*
X1956138Y195587D01*
X1956261Y195598D01*
X1956544Y195580D01*
X3380453Y195580D01*
X3381431Y195704D01*
X3382418Y195733D01*
X3383005Y195903D01*
X3383609Y195979D01*
X3384525Y196341D01*
X3385475Y196615D01*
X3386001Y196925D01*
X3386568Y197149D01*
X3387365Y197728D01*
X3388216Y198229D01*
X3388973Y198896D01*
X3389142Y199018D01*
X3389221Y199113D01*
X3389433Y199300D01*
X3881013Y690880D01*
X4272386Y690880D01*
X4624267Y339000D01*
X4625044Y338397D01*
X4625764Y337719D01*
X4626298Y337424D01*
X4626780Y337050D01*
X4627684Y336658D01*
X4628549Y336181D01*
X4629141Y336028D01*
X4629699Y335786D01*
X4630672Y335632D01*
X4631628Y335384D01*
X4632637Y335319D01*
X4632841Y335287D01*
X4632963Y335298D01*
X4633246Y335280D01*
X4837956Y335280D01*
X4838933Y335404D01*
X4839921Y335433D01*
X4840508Y335603D01*
X4841112Y335679D01*
X4842028Y336041D01*
X4842977Y336315D01*
X4843504Y336625D01*
X4844070Y336849D01*
X4844868Y337428D01*
X4845718Y337929D01*
X4846476Y338596D01*
X4846644Y338718D01*
X4846724Y338813D01*
X4846936Y339000D01*
X4853665Y345729D01*
X4876917Y355360D01*
X4902083Y355360D01*
X4925335Y345729D01*
X4943129Y327935D01*
X4952760Y304683D01*
X4952760Y279517D01*
X4943129Y256265D01*
X4925335Y238470D01*
X4902083Y228839D01*
X4876917Y228839D01*
X4853665Y238470D01*
X4846936Y245200D01*
X4846158Y245803D01*
X4845438Y246481D01*
X4844904Y246776D01*
X4844423Y247150D01*
X4843518Y247541D01*
X4842653Y248019D01*
X4842062Y248172D01*
X4841503Y248414D01*
X4840531Y248568D01*
X4839574Y248816D01*
X4838566Y248880D01*
X4838362Y248913D01*
X4838239Y248901D01*
X4837956Y248919D01*
X4592213Y248919D01*
X4240333Y600800D01*
X4239555Y601403D01*
X4238836Y602081D01*
X4238302Y602376D01*
X4237820Y602750D01*
X4236916Y603141D01*
X4236051Y603619D01*
X4235459Y603772D01*
X4234901Y604014D01*
X4233928Y604168D01*
X4232971Y604416D01*
X4231963Y604480D01*
X4231759Y604513D01*
X4231636Y604501D01*
X4231353Y604519D01*
X4000455Y604519D01*
X3999074Y604345D01*
X3997693Y604215D01*
X3997502Y604147D01*
X3997299Y604121D01*
X3996010Y603611D01*
X3994700Y603140D01*
X3994530Y603025D01*
X3994341Y602951D01*
X3993221Y602138D01*
X3992067Y601355D01*
X3991931Y601201D01*
X3991767Y601082D01*
X3990882Y600013D01*
X3989961Y598971D01*
X3989868Y598790D01*
X3989738Y598632D01*
X3989144Y597373D01*
X3988513Y596138D01*
X3988468Y595939D01*
X3988381Y595755D01*
X3988120Y594392D01*
X3987814Y593035D01*
X3987820Y592830D01*
X3987782Y592631D01*
X3987867Y591250D01*
X3987909Y589855D01*
X3987966Y589658D01*
X3987978Y589456D01*
X3988405Y588137D01*
X3988791Y586799D01*
X3988894Y586623D01*
X3988957Y586429D01*
X3989703Y585250D01*
X3990405Y584058D01*
X3990591Y583846D01*
X3990658Y583740D01*
X3990810Y583596D01*
X3991476Y582840D01*
X4014519Y559797D01*
X4028440Y526188D01*
X4028440Y489812D01*
X4014519Y456202D01*
X4001680Y443363D01*
X4001077Y442586D01*
X4000399Y441866D01*
X4000104Y441332D01*
X3999730Y440850D01*
X3999338Y439946D01*
X3998861Y439081D01*
X3998708Y438489D01*
X3998466Y437931D01*
X3998312Y436958D01*
X3998064Y436002D01*
X3997999Y434993D01*
X3997967Y434789D01*
X3997978Y434667D01*
X3997960Y434384D01*
X3997960Y284511D01*
X3998084Y283533D01*
X3998113Y282546D01*
X3998221Y282173D01*
X3998225Y282104D01*
X3998289Y281905D01*
X3998359Y281355D01*
X3998721Y280439D01*
X3998995Y279490D01*
X3999163Y279205D01*
X3999204Y279077D01*
X3999353Y278841D01*
X3999529Y278397D01*
X4000108Y277599D01*
X4000609Y276748D01*
X4000850Y276474D01*
X4000904Y276389D01*
X4001028Y276272D01*
X4001276Y275991D01*
X4001398Y275823D01*
X4001493Y275743D01*
X4001680Y275531D01*
X4085531Y191680D01*
X4086309Y191077D01*
X4087028Y190399D01*
X4087563Y190104D01*
X4088044Y189730D01*
X4088949Y189338D01*
X4089813Y188861D01*
X4090405Y188708D01*
X4090964Y188466D01*
X4091936Y188312D01*
X4092893Y188064D01*
X4093901Y187999D01*
X4094105Y187967D01*
X4094228Y187978D01*
X4094511Y187960D01*
X5887689Y187960D01*
X5888666Y188084D01*
X5889653Y188113D01*
X5890240Y188283D01*
X5890845Y188359D01*
X5891760Y188721D01*
X5892710Y188995D01*
X5893237Y189305D01*
X5893803Y189529D01*
X5894601Y190108D01*
X5895451Y190609D01*
X5896209Y191276D01*
X5896377Y191398D01*
X5896457Y191493D01*
X5896668Y191680D01*
X6000840Y295851D01*
X6001443Y296629D01*
X6002121Y297348D01*
X6002416Y297883D01*
X6002790Y298364D01*
X6003181Y299269D01*
X6003659Y300133D01*
X6003812Y300725D01*
X6004054Y301284D01*
X6004208Y302256D01*
X6004456Y303213D01*
X6004520Y304221D01*
X6004553Y304425D01*
X6004541Y304548D01*
X6004559Y304831D01*
X6004559Y322988D01*
X6018481Y356598D01*
X6044202Y382319D01*
X6077812Y396240D01*
X6114188Y396240D01*
X6147798Y382319D01*
X6173519Y356598D01*
X6187440Y322988D01*
X6187440Y286612D01*
X6173519Y253002D01*
X6147798Y227281D01*
X6114188Y213359D01*
X6096031Y213359D01*
X6095053Y213236D01*
X6094066Y213207D01*
X6093479Y213037D01*
X6092875Y212961D01*
X6091959Y212599D01*
X6091010Y212325D01*
X6090483Y212015D01*
X6089917Y211791D01*
X6089119Y211212D01*
X6088268Y210711D01*
X6087511Y210044D01*
X6087343Y209922D01*
X6087263Y209826D01*
X6087051Y209640D01*
X5952732Y75320D01*
X5934123Y67613D01*
X5933517Y67267D01*
X5932869Y67010D01*
X5932142Y66483D01*
X5931360Y66037D01*
X5930858Y65551D01*
X5930294Y65142D01*
X5929721Y64449D01*
X5929075Y63823D01*
X5928710Y63229D01*
X5928265Y62692D01*
X5927882Y61878D01*
X5927411Y61112D01*
X5927206Y60445D01*
X5926908Y59814D01*
X5926739Y58932D01*
X5926474Y58072D01*
X5926441Y57375D01*
X5926309Y56690D01*
X5926365Y55794D01*
X5926322Y54894D01*
X5926463Y54210D01*
X5926506Y53515D01*
X5926782Y52662D01*
X5926964Y51779D01*
X5927270Y51151D01*
X5927485Y50488D01*
X5927965Y49729D01*
X5928360Y48920D01*
X5928812Y48389D01*
X5929185Y47800D01*
X5929840Y47183D01*
X5930423Y46499D01*
X5930993Y46097D01*
X5931500Y45619D01*
X5932287Y45184D01*
X5933023Y44666D01*
X5933675Y44418D01*
X5934285Y44081D01*
X5935155Y43856D01*
X5935997Y43536D01*
X5936690Y43458D01*
X5937365Y43284D01*
X5938983Y43180D01*
X8329370Y43180D01*
X8330062Y43268D01*
X8330759Y43257D01*
X8331634Y43466D01*
X8332526Y43579D01*
X8333174Y43835D01*
X8333853Y43998D01*
X8334648Y44418D01*
X8335484Y44749D01*
X8336048Y45158D01*
X8336665Y45485D01*
X8337331Y46090D01*
X8338058Y46618D01*
X8338503Y47154D01*
X8339020Y47624D01*
X8339514Y48375D01*
X8340088Y49068D01*
X8340386Y49699D01*
X8340768Y50281D01*
X8341061Y51131D01*
X8341444Y51945D01*
X8341576Y52629D01*
X8341803Y53289D01*
X8341874Y54187D01*
X8342043Y55069D01*
X8342001Y55764D01*
X8342056Y56460D01*
X8341903Y57348D01*
X8341847Y58244D01*
X8341633Y58907D01*
X8341514Y59595D01*
X8341145Y60416D01*
X8340868Y61271D01*
X8340495Y61861D01*
X8340209Y62496D01*
X8339650Y63198D01*
X8339168Y63959D01*
X8338659Y64439D01*
X8338225Y64983D01*
X8337508Y65523D01*
X8336853Y66141D01*
X8336241Y66478D01*
X8335685Y66898D01*
X8334230Y67613D01*
X8274101Y92518D01*
X8220518Y146101D01*
X8191519Y216111D01*
X8191519Y291889D01*
X8220518Y361899D01*
X8274101Y415481D01*
X8344111Y444480D01*
X8419889Y444480D01*
X8489899Y415481D01*
X8543481Y361899D01*
X8568387Y301770D01*
X8568733Y301163D01*
X8568989Y300515D01*
X8569517Y299788D01*
X8569963Y299006D01*
X8570449Y298505D01*
X8570858Y297941D01*
X8571550Y297368D01*
X8572176Y296721D01*
X8572770Y296357D01*
X8573308Y295912D01*
X8574121Y295528D01*
X8574888Y295058D01*
X8575555Y294852D01*
X8576185Y294555D01*
X8577068Y294386D01*
X8577928Y294121D01*
X8578625Y294087D01*
X8579309Y293956D01*
X8580205Y294011D01*
X8581105Y293968D01*
X8581790Y294109D01*
X8582484Y294152D01*
X8583338Y294428D01*
X8584221Y294610D01*
X8584849Y294917D01*
X8585511Y295131D01*
X8586271Y295612D01*
X8587079Y296007D01*
X8587610Y296459D01*
X8588200Y296832D01*
X8588817Y297487D01*
X8589501Y298069D01*
X8589903Y298639D01*
X8590381Y299147D01*
X8590816Y299934D01*
X8591334Y300669D01*
X8591582Y301322D01*
X8591919Y301932D01*
X8592144Y302802D01*
X8592463Y303643D01*
X8592541Y304337D01*
X8592716Y305012D01*
X8592819Y306629D01*
X8592819Y2868370D01*
X8592732Y2869062D01*
X8592743Y2869760D01*
X8592533Y2870634D01*
X8592421Y2871526D01*
X8592164Y2872174D01*
X8592002Y2872853D01*
X8591581Y2873649D01*
X8591251Y2874484D01*
X8590841Y2875048D01*
X8590515Y2875665D01*
X8589910Y2876332D01*
X8589382Y2877059D01*
X8588846Y2877503D01*
X8588376Y2878020D01*
X8587625Y2878514D01*
X8586932Y2879088D01*
X8586300Y2879386D01*
X8585719Y2879769D01*
X8584869Y2880061D01*
X8584055Y2880445D01*
X8583371Y2880576D01*
X8582710Y2880803D01*
X8581813Y2880874D01*
X8580931Y2881044D01*
X8580234Y2881001D01*
X8579539Y2881056D01*
X8578653Y2880903D01*
X8577756Y2880848D01*
X8577093Y2880633D01*
X8576405Y2880514D01*
X8575584Y2880145D01*
X8574729Y2879868D01*
X8574139Y2879495D01*
X8573503Y2879210D01*
X8572802Y2878650D01*
X8572040Y2878168D01*
X8571561Y2877659D01*
X8571017Y2877225D01*
X8570477Y2876508D01*
X8569859Y2875853D01*
X8569522Y2875242D01*
X8569102Y2874685D01*
X8568387Y2873230D01*
X8543481Y2813101D01*
X8489899Y2759518D01*
X8419889Y2730519D01*
X8344111Y2730519D01*
X8274101Y2759518D01*
X8220518Y2813101D01*
X8191519Y2883111D01*
X8191519Y2958889D01*
X8220518Y3028899D01*
X8274101Y3082481D01*
X8334230Y3107387D01*
X8334837Y3107733D01*
X8335484Y3107989D01*
X8336212Y3108517D01*
X8336993Y3108963D01*
X8337495Y3109449D01*
X8338059Y3109858D01*
X8338632Y3110550D01*
X8339278Y3111176D01*
X8339643Y3111770D01*
X8340088Y3112308D01*
X8340472Y3113121D01*
X8340942Y3113888D01*
X8341148Y3114555D01*
X8341445Y3115185D01*
X8341614Y3116068D01*
X8341879Y3116928D01*
X8341913Y3117625D01*
X8342044Y3118309D01*
X8341988Y3119205D01*
X8342032Y3120105D01*
X8341890Y3120790D01*
X8341848Y3121484D01*
X8341571Y3122338D01*
X8341389Y3123221D01*
X8341083Y3123849D01*
X8340868Y3124511D01*
X8340388Y3125271D01*
X8339993Y3126079D01*
X8339541Y3126610D01*
X8339168Y3127200D01*
X8338513Y3127817D01*
X8337930Y3128501D01*
X8337360Y3128903D01*
X8336853Y3129381D01*
X8336066Y3129816D01*
X8335330Y3130334D01*
X8334678Y3130582D01*
X8334068Y3130919D01*
X8333198Y3131144D01*
X8332357Y3131463D01*
X8331663Y3131541D01*
X8330988Y3131716D01*
X8329370Y3131819D01*
X6527755Y3131819D01*
X6526374Y3131645D01*
X6524993Y3131515D01*
X6524802Y3131447D01*
X6524599Y3131421D01*
X6523310Y3130911D01*
X6522000Y3130440D01*
X6521830Y3130325D01*
X6521641Y3130251D01*
X6520521Y3129438D01*
X6519367Y3128655D01*
X6519231Y3128501D01*
X6519067Y3128382D01*
X6518179Y3127311D01*
X6517261Y3126271D01*
X6517168Y3126090D01*
X6517038Y3125932D01*
X6516444Y3124674D01*
X6515813Y3123438D01*
X6515768Y3123238D01*
X6515681Y3123055D01*
X6515420Y3121695D01*
X6515114Y3120335D01*
X6515120Y3120130D01*
X6515082Y3119931D01*
X6515167Y3118550D01*
X6515209Y3117155D01*
X6515266Y3116958D01*
X6515278Y3116756D01*
X6515705Y3115437D01*
X6516091Y3114099D01*
X6516194Y3113923D01*
X6516257Y3113729D01*
X6517001Y3112553D01*
X6517705Y3111357D01*
X6517891Y3111145D01*
X6517958Y3111040D01*
X6518109Y3110897D01*
X6518776Y3110140D01*
X6529119Y3099797D01*
X6543040Y3066188D01*
X6543040Y3029812D01*
X6529119Y2996202D01*
X6503398Y2970481D01*
X6469788Y2956559D01*
X6433412Y2956559D01*
X6399802Y2970481D01*
X6386963Y2983320D01*
X6386186Y2983923D01*
X6385466Y2984601D01*
X6384932Y2984896D01*
X6384450Y2985270D01*
X6383546Y2985661D01*
X6382681Y2986139D01*
X6382089Y2986292D01*
X6381531Y2986534D01*
X6380558Y2986688D01*
X6379602Y2986936D01*
X6378593Y2987000D01*
X6378389Y2987033D01*
X6378267Y2987021D01*
X6377984Y2987039D01*
X6367780Y2987039D01*
X6366600Y2986890D01*
X6365415Y2986817D01*
X6365028Y2986692D01*
X6364624Y2986641D01*
X6363518Y2986203D01*
X6362388Y2985838D01*
X6362044Y2985620D01*
X6361666Y2985471D01*
X6360706Y2984774D01*
X6359700Y2984138D01*
X6359420Y2983840D01*
X6359091Y2983602D01*
X6358334Y2982688D01*
X6357519Y2981823D01*
X6357322Y2981466D01*
X6357062Y2981152D01*
X6356555Y2980078D01*
X6355981Y2979038D01*
X6355879Y2978643D01*
X6355705Y2978275D01*
X6355482Y2977110D01*
X6355184Y2975958D01*
X6355145Y2975353D01*
X6355106Y2975151D01*
X6355119Y2974945D01*
X6355080Y2974340D01*
X6355080Y1994644D01*
X6355204Y1993666D01*
X6355233Y1992679D01*
X6355403Y1992092D01*
X6355479Y1991488D01*
X6355841Y1990572D01*
X6356115Y1989623D01*
X6356425Y1989096D01*
X6356649Y1988530D01*
X6357228Y1987732D01*
X6357729Y1986881D01*
X6358396Y1986124D01*
X6358518Y1985955D01*
X6358613Y1985876D01*
X6358800Y1985664D01*
X6365529Y1978935D01*
X6375160Y1955683D01*
X6375160Y1930517D01*
X6365529Y1907265D01*
X6347735Y1889470D01*
X6324483Y1879839D01*
X6299317Y1879839D01*
X6276065Y1889470D01*
X6258270Y1907265D01*
X6248639Y1930517D01*
X6248639Y1955683D01*
X6258270Y1978935D01*
X6265000Y1985664D01*
X6265603Y1986442D01*
X6266281Y1987161D01*
X6266576Y1987696D01*
X6266950Y1988177D01*
X6267341Y1989082D01*
X6267819Y1989946D01*
X6267972Y1990538D01*
X6268214Y1991097D01*
X6268368Y1992069D01*
X6268616Y1993026D01*
X6268680Y1994034D01*
X6268713Y1994238D01*
X6268701Y1994361D01*
X6268719Y1994644D01*
X6268719Y2974340D01*
X6268570Y2975520D01*
X6268497Y2976704D01*
X6268372Y2977091D01*
X6268321Y2977496D01*
X6267883Y2978602D01*
X6267518Y2979731D01*
X6267300Y2980076D01*
X6267151Y2980454D01*
X6266454Y2981413D01*
X6265818Y2982420D01*
X6265520Y2982700D01*
X6265282Y2983028D01*
X6264368Y2983785D01*
X6263503Y2984601D01*
X6263146Y2984798D01*
X6262832Y2985058D01*
X6261758Y2985564D01*
X6260718Y2986139D01*
X6260323Y2986241D01*
X6259955Y2986414D01*
X6258790Y2986638D01*
X6257638Y2986936D01*
X6257033Y2986975D01*
X6256831Y2987013D01*
X6256625Y2987001D01*
X6256020Y2987039D01*
X5859811Y2987039D01*
X5858833Y2986916D01*
X5857846Y2986887D01*
X5857259Y2986717D01*
X5856655Y2986641D01*
X5855739Y2986279D01*
X5854790Y2986005D01*
X5854263Y2985695D01*
X5853697Y2985471D01*
X5852899Y2984892D01*
X5852048Y2984391D01*
X5851290Y2983723D01*
X5851123Y2983602D01*
X5851044Y2983507D01*
X5850831Y2983320D01*
X5817777Y2950266D01*
X5817597Y2950034D01*
X5817376Y2949846D01*
X5816626Y2948783D01*
X5815827Y2947753D01*
X5815711Y2947484D01*
X5815543Y2947246D01*
X5815079Y2946026D01*
X5814563Y2944833D01*
X5814517Y2944546D01*
X5814413Y2944272D01*
X5814268Y2942975D01*
X5814064Y2941692D01*
X5814091Y2941401D01*
X5814058Y2941111D01*
X5814239Y2939822D01*
X5814361Y2938524D01*
X5814460Y2938249D01*
X5814500Y2937960D01*
X5815024Y2936426D01*
X5819140Y2926489D01*
X5819140Y2890112D01*
X5805219Y2856502D01*
X5779498Y2830781D01*
X5745888Y2816859D01*
X5709512Y2816859D01*
X5675902Y2830781D01*
X5650181Y2856502D01*
X5636259Y2890112D01*
X5636259Y2926488D01*
X5650181Y2960098D01*
X5675903Y2985819D01*
X5682113Y2988392D01*
X5682189Y2988435D01*
X5682275Y2988460D01*
X5683571Y2989223D01*
X5684877Y2989968D01*
X5684940Y2990029D01*
X5685016Y2990074D01*
X5686233Y2991145D01*
X5794768Y3099679D01*
X5813377Y3107387D01*
X5813983Y3107733D01*
X5814631Y3107989D01*
X5815358Y3108517D01*
X5816140Y3108963D01*
X5816642Y3109449D01*
X5817205Y3109858D01*
X5817779Y3110550D01*
X5818425Y3111176D01*
X5818789Y3111770D01*
X5819235Y3112308D01*
X5819618Y3113121D01*
X5820088Y3113888D01*
X5820294Y3114555D01*
X5820591Y3115185D01*
X5820760Y3116068D01*
X5821026Y3116928D01*
X5821059Y3117625D01*
X5821190Y3118309D01*
X5821135Y3119205D01*
X5821178Y3120105D01*
X5821037Y3120790D01*
X5820994Y3121484D01*
X5820718Y3122338D01*
X5820536Y3123221D01*
X5820229Y3123849D01*
X5820015Y3124511D01*
X5819535Y3125271D01*
X5819140Y3126079D01*
X5818688Y3126610D01*
X5818315Y3127200D01*
X5817660Y3127817D01*
X5817077Y3128501D01*
X5816507Y3128903D01*
X5815999Y3129381D01*
X5815213Y3129816D01*
X5814477Y3130334D01*
X5813825Y3130582D01*
X5813214Y3130919D01*
X5812344Y3131144D01*
X5811503Y3131463D01*
X5810809Y3131541D01*
X5810135Y3131716D01*
X5808517Y3131819D01*
X306629Y3131819D01*
X305938Y3131732D01*
X305240Y3131743D01*
X304365Y3131533D01*
X303473Y3131421D01*
X302825Y3131164D01*
X302147Y3131002D01*
X301351Y3130581D01*
X300515Y3130251D01*
X299951Y3129841D01*
X299334Y3129515D01*
X298668Y3128910D01*
X297941Y3128382D01*
X297497Y3127846D01*
X296980Y3127376D01*
X296485Y3126625D01*
X295912Y3125932D01*
X295614Y3125300D01*
X295231Y3124719D01*
X294939Y3123869D01*
X294555Y3123055D01*
X294424Y3122371D01*
X294197Y3121710D01*
X294125Y3120813D01*
X293956Y3119931D01*
X293999Y3119234D01*
X293943Y3118539D01*
X294097Y3117653D01*
X294152Y3116756D01*
X294367Y3116093D01*
X294486Y3115405D01*
X294855Y3114584D01*
X295131Y3113729D01*
X295504Y3113139D01*
X295790Y3112503D01*
X296350Y3111802D01*
X296832Y3111040D01*
X297340Y3110561D01*
X297774Y3110017D01*
X298491Y3109477D01*
X299147Y3108859D01*
X299758Y3108522D01*
X300314Y3108102D01*
X301770Y3107387D01*
X361899Y3082481D01*
X415481Y3028899D01*
X444480Y2958889D01*
X444480Y2883111D01*
X415481Y2813101D01*
X361899Y2759518D01*
X291889Y2730519D01*
X216111Y2730519D01*
X146101Y2759518D01*
X92518Y2813101D01*
X67613Y2873230D01*
X67267Y2873837D01*
X67010Y2874484D01*
X66483Y2875212D01*
X66037Y2875993D01*
X65551Y2876495D01*
X65142Y2877059D01*
X64449Y2877632D01*
X63823Y2878278D01*
X63229Y2878643D01*
X62692Y2879088D01*
X61878Y2879472D01*
X61112Y2879942D01*
X60445Y2880148D01*
X59814Y2880445D01*
X58932Y2880614D01*
X58072Y2880879D01*
X57375Y2880913D01*
X56690Y2881044D01*
X55794Y2880988D01*
X54894Y2881032D01*
X54210Y2880890D01*
X53515Y2880848D01*
X52662Y2880571D01*
X51779Y2880389D01*
X51151Y2880083D01*
X50488Y2879868D01*
X49729Y2879388D01*
X48920Y2878993D01*
X48389Y2878541D01*
X47800Y2878168D01*
X47183Y2877513D01*
X46499Y2876930D01*
X46097Y2876360D01*
X45619Y2875853D01*
X45184Y2875066D01*
X44666Y2874330D01*
X44418Y2873678D01*
X44081Y2873068D01*
X43856Y2872198D01*
X43536Y2871357D01*
X43458Y2870663D01*
X43284Y2869988D01*
X43180Y2868370D01*
X43180Y306629D01*
X43268Y305938D01*
X43257Y305240D01*
X43466Y304365D01*
X43579Y303473D01*
X43835Y302825D01*
X43998Y302147D01*
X44418Y301351D01*
X44749Y300515D01*
X45158Y299951D01*
X45485Y299334D01*
X46090Y298668D01*
X46618Y297941D01*
X47154Y297497D01*
X47624Y296980D01*
X48375Y296485D01*
X49068Y295912D01*
X49699Y295614D01*
X50281Y295231D01*
X51131Y294939D01*
X51945Y294555D01*
X52629Y294424D01*
X53289Y294197D01*
X54187Y294125D01*
X55069Y293956D01*
X55765Y293999D01*
X56460Y293943D01*
X57347Y294097D01*
X58244Y294152D01*
X58907Y294367D01*
X59595Y294486D01*
X60416Y294855D01*
X61271Y295131D01*
X61861Y295504D01*
X62496Y295790D01*
X63198Y296350D01*
X63959Y296832D01*
X64439Y297340D01*
X64983Y297774D01*
X65523Y298491D01*
X66141Y299147D01*
X66478Y299758D01*
X66898Y300314D01*
X67613Y301770D01*
X92518Y361899D01*
X146101Y415481D01*
X216111Y444480D01*
X291889Y444480D01*
X361899Y415481D01*
X415481Y361899D01*
X444480Y291889D01*
X444480Y216111D01*
X415481Y146101D01*
X361899Y92518D01*
X301770Y67613D01*
X301163Y67267D01*
X300516Y67010D01*
X299788Y66483D01*
X299007Y66037D01*
X298505Y65551D01*
X297941Y65142D01*
X297368Y64449D01*
X296722Y63823D01*
X296357Y63229D01*
X295912Y62692D01*
X295528Y61878D01*
X295058Y61112D01*
X294853Y60445D01*
X294555Y59814D01*
X294386Y58932D01*
X294121Y58072D01*
X294088Y57375D01*
X293956Y56690D01*
X294012Y55792D01*
X293969Y54894D01*
X294109Y54211D01*
X294153Y53515D01*
X294429Y52661D01*
X294611Y51779D01*
X294917Y51151D01*
X295132Y50488D01*
X295612Y49729D01*
X296007Y48920D01*
X296459Y48389D01*
X296832Y47800D01*
X297487Y47183D01*
X298070Y46499D01*
X298640Y46097D01*
X299147Y45619D01*
X299934Y45184D01*
X300670Y44666D01*
X301322Y44418D01*
X301932Y44081D01*
X302802Y43856D01*
X303643Y43536D01*
X304337Y43458D01*
X305012Y43284D01*
X306630Y43180D01*
X4043217Y43180D01*
X4043909Y43268D01*
G37*
%LPC*%
G36*
X1511417Y178039D02*
X1511417Y178039D01*
X1488165Y187670D01*
X1470370Y205465D01*
X1460739Y228717D01*
X1460739Y253883D01*
X1470370Y277135D01*
X1488165Y294929D01*
X1511417Y304560D01*
X1536583Y304560D01*
X1559835Y294929D01*
X1566564Y288200D01*
X1567342Y287597D01*
X1568061Y286919D01*
X1568596Y286624D01*
X1569077Y286250D01*
X1569982Y285858D01*
X1570846Y285381D01*
X1571438Y285228D01*
X1571997Y284986D01*
X1572969Y284832D01*
X1573926Y284584D01*
X1574934Y284519D01*
X1575138Y284487D01*
X1575261Y284498D01*
X1575544Y284480D01*
X1645920Y284480D01*
X1647100Y284629D01*
X1648284Y284703D01*
X1648671Y284828D01*
X1649076Y284879D01*
X1650182Y285316D01*
X1651311Y285682D01*
X1651656Y285899D01*
X1652034Y286049D01*
X1652993Y286745D01*
X1654000Y287382D01*
X1654280Y287679D01*
X1654608Y287918D01*
X1655365Y288831D01*
X1656181Y289697D01*
X1656378Y290053D01*
X1656638Y290368D01*
X1657144Y291442D01*
X1657719Y292482D01*
X1657821Y292877D01*
X1657994Y293245D01*
X1658218Y294410D01*
X1658516Y295562D01*
X1658555Y296167D01*
X1658593Y296369D01*
X1658581Y296575D01*
X1658619Y297180D01*
X1658619Y1351386D01*
X2213700Y1906467D01*
X2214303Y1907244D01*
X2214981Y1907964D01*
X2215276Y1908498D01*
X2215650Y1908980D01*
X2216041Y1909884D01*
X2216519Y1910749D01*
X2216672Y1911341D01*
X2216914Y1911899D01*
X2217068Y1912872D01*
X2217316Y1913828D01*
X2217380Y1914837D01*
X2217413Y1915041D01*
X2217401Y1915163D01*
X2217419Y1915446D01*
X2217419Y2183656D01*
X2217296Y2184633D01*
X2217267Y2185621D01*
X2217097Y2186208D01*
X2217021Y2186812D01*
X2216659Y2187728D01*
X2216385Y2188677D01*
X2216075Y2189204D01*
X2215851Y2189770D01*
X2215272Y2190568D01*
X2214771Y2191418D01*
X2214104Y2192176D01*
X2213982Y2192344D01*
X2213886Y2192424D01*
X2213700Y2192636D01*
X2206970Y2199365D01*
X2197339Y2222617D01*
X2197339Y2247783D01*
X2206970Y2271035D01*
X2224765Y2288829D01*
X2248017Y2298460D01*
X2273183Y2298460D01*
X2296435Y2288829D01*
X2314229Y2271035D01*
X2323860Y2247783D01*
X2323860Y2222617D01*
X2314229Y2199365D01*
X2307500Y2192636D01*
X2306897Y2191858D01*
X2306219Y2191138D01*
X2305924Y2190604D01*
X2305550Y2190123D01*
X2305158Y2189218D01*
X2304681Y2188353D01*
X2304528Y2187762D01*
X2304286Y2187203D01*
X2304132Y2186231D01*
X2303884Y2185274D01*
X2303819Y2184266D01*
X2303787Y2184062D01*
X2303798Y2183939D01*
X2303780Y2183656D01*
X2303780Y1900206D01*
X2303955Y1898824D01*
X2304084Y1897444D01*
X2304153Y1897253D01*
X2304179Y1897050D01*
X2304689Y1895759D01*
X2305159Y1894450D01*
X2305274Y1894281D01*
X2305349Y1894092D01*
X2306162Y1892972D01*
X2306945Y1891817D01*
X2307098Y1891682D01*
X2307218Y1891517D01*
X2308286Y1890632D01*
X2309329Y1889711D01*
X2309510Y1889618D01*
X2309668Y1889488D01*
X2310926Y1888894D01*
X2312161Y1888263D01*
X2312360Y1888218D01*
X2312545Y1888131D01*
X2313907Y1887870D01*
X2315265Y1887564D01*
X2315469Y1887571D01*
X2315669Y1887532D01*
X2317050Y1887618D01*
X2318444Y1887659D01*
X2318642Y1887716D01*
X2318844Y1887728D01*
X2320159Y1888154D01*
X2321501Y1888541D01*
X2321678Y1888645D01*
X2321871Y1888708D01*
X2323046Y1889451D01*
X2324242Y1890155D01*
X2324453Y1890341D01*
X2324559Y1890408D01*
X2324704Y1890561D01*
X2325459Y1891226D01*
X2587320Y2153087D01*
X2587923Y2153864D01*
X2588601Y2154584D01*
X2588897Y2155119D01*
X2589270Y2155600D01*
X2589661Y2156503D01*
X2590139Y2157369D01*
X2590292Y2157961D01*
X2590534Y2158519D01*
X2590688Y2159492D01*
X2590936Y2160448D01*
X2591000Y2161457D01*
X2591033Y2161661D01*
X2591021Y2161783D01*
X2591039Y2162066D01*
X2591039Y2171583D01*
X2600670Y2194835D01*
X2618465Y2212629D01*
X2641717Y2222260D01*
X2666883Y2222260D01*
X2690135Y2212629D01*
X2707929Y2194835D01*
X2712160Y2184620D01*
X2712305Y2184366D01*
X2712395Y2184088D01*
X2713091Y2182988D01*
X2713736Y2181857D01*
X2713939Y2181648D01*
X2714095Y2181400D01*
X2715045Y2180505D01*
X2715949Y2179572D01*
X2716198Y2179419D01*
X2716411Y2179219D01*
X2717550Y2178589D01*
X2718661Y2177908D01*
X2718940Y2177822D01*
X2719196Y2177681D01*
X2720457Y2177354D01*
X2721701Y2176971D01*
X2721993Y2176957D01*
X2722275Y2176884D01*
X2723893Y2176780D01*
X2743126Y2176780D01*
X2760980Y2158926D01*
X2760980Y2154206D01*
X2761155Y2152824D01*
X2761284Y2151444D01*
X2761353Y2151253D01*
X2761379Y2151050D01*
X2761889Y2149759D01*
X2762359Y2148450D01*
X2762474Y2148281D01*
X2762549Y2148092D01*
X2763362Y2146972D01*
X2764145Y2145817D01*
X2764298Y2145682D01*
X2764418Y2145517D01*
X2765486Y2144632D01*
X2766529Y2143711D01*
X2766710Y2143618D01*
X2766868Y2143488D01*
X2768126Y2142894D01*
X2769361Y2142263D01*
X2769560Y2142218D01*
X2769745Y2142131D01*
X2771107Y2141870D01*
X2772465Y2141564D01*
X2772669Y2141571D01*
X2772869Y2141532D01*
X2774250Y2141618D01*
X2775644Y2141659D01*
X2775842Y2141716D01*
X2776044Y2141728D01*
X2777359Y2142154D01*
X2778701Y2142541D01*
X2778878Y2142645D01*
X2779071Y2142708D01*
X2780246Y2143451D01*
X2781442Y2144155D01*
X2781653Y2144341D01*
X2781759Y2144408D01*
X2781904Y2144561D01*
X2782659Y2145226D01*
X3572600Y2935167D01*
X3601613Y2964180D01*
X5269756Y2964180D01*
X5270733Y2964304D01*
X5271721Y2964333D01*
X5272308Y2964503D01*
X5272912Y2964579D01*
X5273828Y2964941D01*
X5274777Y2965215D01*
X5275304Y2965525D01*
X5275870Y2965749D01*
X5276668Y2966328D01*
X5277518Y2966829D01*
X5278276Y2967496D01*
X5278444Y2967618D01*
X5278524Y2967713D01*
X5278736Y2967900D01*
X5285465Y2974629D01*
X5308717Y2984260D01*
X5333883Y2984260D01*
X5357135Y2974629D01*
X5374929Y2956835D01*
X5384560Y2933583D01*
X5384560Y2908417D01*
X5374929Y2885165D01*
X5357135Y2867370D01*
X5333883Y2857739D01*
X5308717Y2857739D01*
X5285465Y2867370D01*
X5278736Y2874100D01*
X5277958Y2874703D01*
X5277238Y2875381D01*
X5276704Y2875676D01*
X5276223Y2876050D01*
X5275318Y2876441D01*
X5274453Y2876919D01*
X5273862Y2877072D01*
X5273303Y2877314D01*
X5272331Y2877468D01*
X5271374Y2877716D01*
X5270366Y2877780D01*
X5270162Y2877813D01*
X5270039Y2877801D01*
X5269756Y2877819D01*
X5113306Y2877819D01*
X5111925Y2877645D01*
X5110544Y2877515D01*
X5110352Y2877447D01*
X5110150Y2877421D01*
X5108860Y2876911D01*
X5107550Y2876440D01*
X5107381Y2876325D01*
X5107192Y2876251D01*
X5106072Y2875438D01*
X5104917Y2874655D01*
X5104782Y2874501D01*
X5104617Y2874382D01*
X5103732Y2873313D01*
X5102811Y2872271D01*
X5102718Y2872090D01*
X5102588Y2871932D01*
X5101994Y2870673D01*
X5101363Y2869438D01*
X5101318Y2869239D01*
X5101231Y2869055D01*
X5100970Y2867692D01*
X5100664Y2866335D01*
X5100670Y2866130D01*
X5100632Y2865931D01*
X5100718Y2864550D01*
X5100759Y2863155D01*
X5100816Y2862958D01*
X5100828Y2862756D01*
X5101255Y2861437D01*
X5101641Y2860099D01*
X5101745Y2859923D01*
X5101808Y2859729D01*
X5102553Y2858550D01*
X5103255Y2857358D01*
X5103441Y2857146D01*
X5103508Y2857040D01*
X5103661Y2856896D01*
X5104326Y2856140D01*
X5126900Y2833566D01*
X5183066Y2777400D01*
X5183068Y2777399D01*
X5212080Y2748386D01*
X5212080Y2134344D01*
X5212204Y2133366D01*
X5212233Y2132379D01*
X5212403Y2131792D01*
X5212479Y2131188D01*
X5212841Y2130272D01*
X5213115Y2129323D01*
X5213425Y2128796D01*
X5213649Y2128230D01*
X5214228Y2127432D01*
X5214729Y2126581D01*
X5215396Y2125824D01*
X5215518Y2125655D01*
X5215613Y2125576D01*
X5215800Y2125364D01*
X5222529Y2118635D01*
X5232160Y2095383D01*
X5232160Y2070217D01*
X5222529Y2046965D01*
X5204735Y2029170D01*
X5181483Y2019539D01*
X5156317Y2019539D01*
X5133065Y2029170D01*
X5115270Y2046965D01*
X5105639Y2070217D01*
X5105639Y2095383D01*
X5115270Y2118635D01*
X5122000Y2125364D01*
X5122603Y2126142D01*
X5123281Y2126861D01*
X5123576Y2127396D01*
X5123950Y2127877D01*
X5124341Y2128782D01*
X5124819Y2129646D01*
X5124972Y2130238D01*
X5125214Y2130797D01*
X5125368Y2131769D01*
X5125616Y2132726D01*
X5125680Y2133734D01*
X5125713Y2133938D01*
X5125701Y2134061D01*
X5125719Y2134344D01*
X5125719Y2707354D01*
X5125596Y2708331D01*
X5125567Y2709318D01*
X5125397Y2709905D01*
X5125321Y2710510D01*
X5124959Y2711425D01*
X5124685Y2712375D01*
X5124375Y2712902D01*
X5124151Y2713468D01*
X5123572Y2714266D01*
X5123071Y2715116D01*
X5122404Y2715874D01*
X5122282Y2716042D01*
X5122186Y2716122D01*
X5122000Y2716333D01*
X5065833Y2772500D01*
X5065056Y2773103D01*
X5064336Y2773781D01*
X5063802Y2774076D01*
X5063320Y2774450D01*
X5062416Y2774841D01*
X5061551Y2775319D01*
X5060959Y2775472D01*
X5060401Y2775714D01*
X5059428Y2775868D01*
X5058472Y2776116D01*
X5057463Y2776180D01*
X5057259Y2776213D01*
X5057137Y2776201D01*
X5056854Y2776219D01*
X3655346Y2776219D01*
X3654369Y2776096D01*
X3653382Y2776067D01*
X3652795Y2775897D01*
X3652190Y2775821D01*
X3651275Y2775459D01*
X3650325Y2775185D01*
X3649798Y2774875D01*
X3649232Y2774651D01*
X3648434Y2774072D01*
X3647584Y2773571D01*
X3646826Y2772904D01*
X3646658Y2772782D01*
X3646578Y2772686D01*
X3646367Y2772500D01*
X2205900Y1332033D01*
X2205297Y1331255D01*
X2204619Y1330536D01*
X2204324Y1330002D01*
X2203950Y1329520D01*
X2203558Y1328616D01*
X2203081Y1327751D01*
X2202928Y1327159D01*
X2202686Y1326601D01*
X2202532Y1325628D01*
X2202284Y1324671D01*
X2202219Y1323663D01*
X2202187Y1323459D01*
X2202198Y1323336D01*
X2202180Y1323053D01*
X2202180Y1137813D01*
X2075286Y1010919D01*
X2058144Y1010919D01*
X2057166Y1010796D01*
X2056179Y1010767D01*
X2055592Y1010597D01*
X2054988Y1010521D01*
X2054072Y1010159D01*
X2053123Y1009885D01*
X2052596Y1009575D01*
X2052030Y1009351D01*
X2051232Y1008772D01*
X2050381Y1008271D01*
X2049624Y1007604D01*
X2049455Y1007482D01*
X2049376Y1007386D01*
X2049164Y1007200D01*
X2042435Y1000470D01*
X2019183Y990839D01*
X2006360Y990839D01*
X2005180Y990690D01*
X2003995Y990617D01*
X2003608Y990492D01*
X2003204Y990441D01*
X2002098Y990003D01*
X2000968Y989638D01*
X2000624Y989420D01*
X2000246Y989271D01*
X1999286Y988574D01*
X1998280Y987938D01*
X1998000Y987640D01*
X1997671Y987402D01*
X1996914Y986488D01*
X1996099Y985623D01*
X1995902Y985266D01*
X1995642Y984952D01*
X1995135Y983878D01*
X1994561Y982838D01*
X1994459Y982443D01*
X1994285Y982075D01*
X1994062Y980910D01*
X1993764Y979758D01*
X1993725Y979153D01*
X1993686Y978951D01*
X1993699Y978745D01*
X1993660Y978140D01*
X1993660Y965317D01*
X1984029Y942065D01*
X1966235Y924270D01*
X1942983Y914639D01*
X1917817Y914639D01*
X1894565Y924270D01*
X1876770Y942065D01*
X1871013Y955967D01*
X1870667Y956573D01*
X1870410Y957221D01*
X1869883Y957948D01*
X1869437Y958730D01*
X1868951Y959232D01*
X1868542Y959795D01*
X1867849Y960369D01*
X1867223Y961015D01*
X1866629Y961379D01*
X1866092Y961825D01*
X1865278Y962208D01*
X1864512Y962678D01*
X1863844Y962884D01*
X1863214Y963181D01*
X1862333Y963350D01*
X1861472Y963616D01*
X1860775Y963649D01*
X1860090Y963780D01*
X1859194Y963725D01*
X1858295Y963768D01*
X1857610Y963627D01*
X1856915Y963584D01*
X1856061Y963308D01*
X1855179Y963126D01*
X1854552Y962820D01*
X1853888Y962605D01*
X1853128Y962124D01*
X1852321Y961730D01*
X1851791Y961278D01*
X1851200Y960905D01*
X1850582Y960248D01*
X1849899Y959667D01*
X1849498Y959098D01*
X1849019Y958589D01*
X1848584Y957801D01*
X1848066Y957067D01*
X1847819Y956416D01*
X1847481Y955804D01*
X1847255Y954932D01*
X1846937Y954093D01*
X1846859Y953401D01*
X1846684Y952725D01*
X1846580Y951107D01*
X1846580Y661144D01*
X1846704Y660166D01*
X1846733Y659179D01*
X1846903Y658592D01*
X1846979Y657988D01*
X1847341Y657072D01*
X1847615Y656123D01*
X1847925Y655596D01*
X1848149Y655030D01*
X1848728Y654232D01*
X1849229Y653381D01*
X1849896Y652624D01*
X1850018Y652455D01*
X1850113Y652376D01*
X1850300Y652164D01*
X1857029Y645435D01*
X1866660Y622183D01*
X1866660Y597017D01*
X1857029Y573765D01*
X1839235Y555970D01*
X1815983Y546339D01*
X1790817Y546339D01*
X1767566Y555970D01*
X1766660Y556876D01*
X1765561Y557728D01*
X1764492Y558614D01*
X1764308Y558701D01*
X1764147Y558826D01*
X1762871Y559378D01*
X1761614Y559971D01*
X1761415Y560009D01*
X1761228Y560090D01*
X1759854Y560308D01*
X1758490Y560570D01*
X1758287Y560558D01*
X1758086Y560589D01*
X1756700Y560459D01*
X1755315Y560374D01*
X1755122Y560311D01*
X1754919Y560292D01*
X1753606Y559821D01*
X1752288Y559395D01*
X1752117Y559286D01*
X1751925Y559217D01*
X1750773Y558437D01*
X1749600Y557694D01*
X1749460Y557546D01*
X1749292Y557432D01*
X1748371Y556390D01*
X1747419Y555379D01*
X1747320Y555201D01*
X1747185Y555048D01*
X1746552Y553809D01*
X1745881Y552594D01*
X1745830Y552397D01*
X1745737Y552216D01*
X1745432Y550861D01*
X1745084Y549514D01*
X1745066Y549232D01*
X1745039Y549112D01*
X1745045Y548906D01*
X1744980Y547897D01*
X1744980Y248813D01*
X1694286Y198119D01*
X1575544Y198119D01*
X1574566Y197996D01*
X1573579Y197967D01*
X1572992Y197797D01*
X1572388Y197721D01*
X1571472Y197359D01*
X1570523Y197085D01*
X1569996Y196775D01*
X1569430Y196551D01*
X1568632Y195971D01*
X1567781Y195471D01*
X1567024Y194804D01*
X1566855Y194682D01*
X1566776Y194586D01*
X1566564Y194400D01*
X1559835Y187670D01*
X1536583Y178039D01*
X1511417Y178039D01*
G37*
%LPD*%
%LPC*%
G36*
X1981317Y444739D02*
X1981317Y444739D01*
X1958065Y454370D01*
X1940270Y472165D01*
X1930639Y495417D01*
X1930639Y520583D01*
X1940270Y543835D01*
X1946256Y549820D01*
X1946983Y550757D01*
X1947771Y551649D01*
X1947957Y552012D01*
X1948206Y552333D01*
X1948677Y553422D01*
X1949219Y554482D01*
X1949309Y554880D01*
X1949470Y555253D01*
X1949656Y556423D01*
X1949918Y557585D01*
X1949905Y557993D01*
X1949969Y558394D01*
X1949858Y559574D01*
X1949823Y560765D01*
X1949709Y561158D01*
X1949672Y561562D01*
X1949271Y562678D01*
X1948941Y563822D01*
X1948734Y564172D01*
X1948597Y564556D01*
X1947929Y565539D01*
X1947327Y566563D01*
X1946927Y567017D01*
X1946811Y567188D01*
X1946656Y567325D01*
X1946256Y567780D01*
X1940270Y573766D01*
X1930639Y597017D01*
X1930639Y622183D01*
X1940270Y645435D01*
X1947000Y652164D01*
X1947603Y652942D01*
X1948281Y653661D01*
X1948576Y654196D01*
X1948950Y654677D01*
X1949341Y655582D01*
X1949819Y656446D01*
X1949972Y657038D01*
X1950214Y657597D01*
X1950368Y658569D01*
X1950616Y659526D01*
X1950680Y660534D01*
X1950713Y660738D01*
X1950701Y660861D01*
X1950719Y661144D01*
X1950719Y843386D01*
X3487313Y2379980D01*
X4183486Y2379980D01*
X4246880Y2316586D01*
X4246880Y2286743D01*
X4247004Y2285766D01*
X4247033Y2284778D01*
X4247203Y2284192D01*
X4247279Y2283588D01*
X4247642Y2282671D01*
X4247915Y2281722D01*
X4248225Y2281196D01*
X4248449Y2280629D01*
X4249028Y2279832D01*
X4249529Y2278981D01*
X4250197Y2278222D01*
X4250318Y2278055D01*
X4250413Y2277977D01*
X4250600Y2277763D01*
X4257330Y2271034D01*
X4266960Y2247783D01*
X4266960Y2222617D01*
X4257329Y2199365D01*
X4250600Y2192636D01*
X4249997Y2191858D01*
X4249319Y2191138D01*
X4249024Y2190604D01*
X4248650Y2190123D01*
X4248258Y2189218D01*
X4247781Y2188353D01*
X4247628Y2187762D01*
X4247386Y2187203D01*
X4247232Y2186231D01*
X4246984Y2185274D01*
X4246919Y2184266D01*
X4246887Y2184062D01*
X4246898Y2183939D01*
X4246880Y2183656D01*
X4246880Y1521746D01*
X4247004Y1520769D01*
X4247033Y1519782D01*
X4247203Y1519195D01*
X4247279Y1518590D01*
X4247641Y1517675D01*
X4247915Y1516725D01*
X4248225Y1516198D01*
X4248449Y1515632D01*
X4249028Y1514834D01*
X4249529Y1513984D01*
X4250196Y1513226D01*
X4250318Y1513058D01*
X4250413Y1512978D01*
X4250600Y1512767D01*
X4649667Y1113700D01*
X4650444Y1113097D01*
X4651164Y1112419D01*
X4651698Y1112124D01*
X4652180Y1111750D01*
X4653084Y1111358D01*
X4653949Y1110881D01*
X4654541Y1110728D01*
X4655099Y1110486D01*
X4656072Y1110332D01*
X4657028Y1110084D01*
X4658037Y1110019D01*
X4658241Y1109987D01*
X4658363Y1109998D01*
X4658646Y1109980D01*
X4774456Y1109980D01*
X4775433Y1110104D01*
X4776421Y1110133D01*
X4777008Y1110303D01*
X4777612Y1110379D01*
X4778528Y1110741D01*
X4779477Y1111015D01*
X4780004Y1111325D01*
X4780570Y1111549D01*
X4781368Y1112128D01*
X4782218Y1112629D01*
X4782976Y1113296D01*
X4783144Y1113418D01*
X4783224Y1113513D01*
X4783436Y1113700D01*
X4790165Y1120429D01*
X4813417Y1130060D01*
X4838583Y1130060D01*
X4861835Y1120429D01*
X4879629Y1102635D01*
X4889260Y1079383D01*
X4889260Y1054217D01*
X4879630Y1030966D01*
X4867294Y1018630D01*
X4866566Y1017692D01*
X4865779Y1016801D01*
X4865593Y1016438D01*
X4865344Y1016117D01*
X4864872Y1015026D01*
X4864331Y1013968D01*
X4864242Y1013571D01*
X4864080Y1013198D01*
X4863894Y1012026D01*
X4863632Y1010865D01*
X4863644Y1010457D01*
X4863581Y1010056D01*
X4863692Y1008874D01*
X4863727Y1007685D01*
X4863840Y1007294D01*
X4863878Y1006888D01*
X4864279Y1005771D01*
X4864609Y1004629D01*
X4864816Y1004277D01*
X4864953Y1003895D01*
X4865619Y1002912D01*
X4866223Y1001888D01*
X4866623Y1001433D01*
X4866739Y1001262D01*
X4866894Y1001125D01*
X4867294Y1000670D01*
X4879629Y988335D01*
X4889260Y965083D01*
X4889260Y939917D01*
X4879629Y916665D01*
X4861835Y898870D01*
X4838583Y889239D01*
X4813417Y889239D01*
X4790165Y898870D01*
X4783436Y905600D01*
X4782658Y906203D01*
X4781938Y906881D01*
X4781404Y907176D01*
X4780923Y907550D01*
X4780018Y907941D01*
X4779153Y908419D01*
X4778562Y908572D01*
X4778003Y908814D01*
X4777031Y908968D01*
X4776074Y909216D01*
X4775066Y909280D01*
X4774862Y909313D01*
X4774739Y909301D01*
X4774456Y909319D01*
X4566813Y909319D01*
X4033519Y1442613D01*
X4033519Y1892344D01*
X4033345Y1893725D01*
X4033215Y1895106D01*
X4033147Y1895298D01*
X4033121Y1895500D01*
X4032611Y1896790D01*
X4032140Y1898100D01*
X4032025Y1898269D01*
X4031951Y1898458D01*
X4031138Y1899578D01*
X4030355Y1900733D01*
X4030201Y1900868D01*
X4030082Y1901033D01*
X4029013Y1901918D01*
X4027971Y1902839D01*
X4027790Y1902932D01*
X4027632Y1903062D01*
X4026371Y1903657D01*
X4025138Y1904287D01*
X4024940Y1904332D01*
X4024755Y1904419D01*
X4023391Y1904680D01*
X4022035Y1904986D01*
X4021830Y1904980D01*
X4021631Y1905018D01*
X4020250Y1904933D01*
X4018855Y1904891D01*
X4018658Y1904834D01*
X4018456Y1904822D01*
X4017137Y1904395D01*
X4015799Y1904009D01*
X4015623Y1903905D01*
X4015429Y1903843D01*
X4014253Y1903099D01*
X4013057Y1902395D01*
X4012845Y1902209D01*
X4012740Y1902142D01*
X4012597Y1901990D01*
X4011840Y1901324D01*
X3996600Y1886083D01*
X3995996Y1885305D01*
X3995319Y1884586D01*
X3995023Y1884051D01*
X3994650Y1883570D01*
X3994258Y1882666D01*
X3993781Y1881801D01*
X3993628Y1881211D01*
X3993386Y1880651D01*
X3993231Y1879677D01*
X3992984Y1878722D01*
X3992919Y1877713D01*
X3992887Y1877509D01*
X3992898Y1877387D01*
X3992880Y1877104D01*
X3992880Y1677985D01*
X3984373Y1657446D01*
X3917860Y1590933D01*
X3917257Y1590155D01*
X3916579Y1589436D01*
X3916284Y1588901D01*
X3915910Y1588420D01*
X3915518Y1587515D01*
X3915041Y1586651D01*
X3914888Y1586059D01*
X3914646Y1585500D01*
X3914492Y1584528D01*
X3914244Y1583571D01*
X3914179Y1582563D01*
X3914147Y1582359D01*
X3914158Y1582236D01*
X3914140Y1581953D01*
X3914140Y1556612D01*
X3900219Y1523002D01*
X3874498Y1497281D01*
X3840888Y1483359D01*
X3804512Y1483359D01*
X3770902Y1497281D01*
X3745181Y1523002D01*
X3731259Y1556612D01*
X3731259Y1592988D01*
X3745181Y1626598D01*
X3770902Y1652319D01*
X3804512Y1666240D01*
X3829853Y1666240D01*
X3830831Y1666364D01*
X3831818Y1666393D01*
X3832405Y1666563D01*
X3833009Y1666639D01*
X3833925Y1667001D01*
X3834874Y1667275D01*
X3835401Y1667585D01*
X3835967Y1667809D01*
X3836765Y1668388D01*
X3837616Y1668889D01*
X3838373Y1669556D01*
X3838542Y1669678D01*
X3838621Y1669773D01*
X3838833Y1669960D01*
X3877400Y1708527D01*
X3878003Y1709305D01*
X3878681Y1710024D01*
X3878976Y1710558D01*
X3879350Y1711040D01*
X3879741Y1711944D01*
X3880219Y1712809D01*
X3880372Y1713401D01*
X3880614Y1713959D01*
X3880768Y1714932D01*
X3881016Y1715889D01*
X3881080Y1716897D01*
X3881113Y1717101D01*
X3881101Y1717224D01*
X3881119Y1717507D01*
X3881119Y1877104D01*
X3880996Y1878081D01*
X3880967Y1879068D01*
X3880797Y1879655D01*
X3880721Y1880260D01*
X3880359Y1881175D01*
X3880085Y1882125D01*
X3879775Y1882652D01*
X3879551Y1883218D01*
X3878972Y1884016D01*
X3878471Y1884866D01*
X3877804Y1885624D01*
X3877682Y1885792D01*
X3877586Y1885872D01*
X3877400Y1886083D01*
X3859481Y1904002D01*
X3845559Y1937612D01*
X3845559Y1973988D01*
X3859481Y2007598D01*
X3885202Y2033319D01*
X3918812Y2047240D01*
X3955188Y2047240D01*
X3988797Y2033319D01*
X4011840Y2010276D01*
X4012938Y2009424D01*
X4014008Y2008538D01*
X4014193Y2008450D01*
X4014353Y2008326D01*
X4015626Y2007774D01*
X4016885Y2007181D01*
X4017086Y2007143D01*
X4017273Y2007062D01*
X4018643Y2006844D01*
X4020009Y2006582D01*
X4020213Y2006594D01*
X4020414Y2006563D01*
X4021801Y2006693D01*
X4023184Y2006778D01*
X4023377Y2006841D01*
X4023582Y2006860D01*
X4024896Y2007332D01*
X4026211Y2007757D01*
X4026383Y2007866D01*
X4026576Y2007935D01*
X4027724Y2008714D01*
X4028900Y2009458D01*
X4029040Y2009607D01*
X4029208Y2009721D01*
X4030125Y2010758D01*
X4031081Y2011773D01*
X4031180Y2011952D01*
X4031315Y2012104D01*
X4031946Y2013339D01*
X4032619Y2014558D01*
X4032670Y2014756D01*
X4032763Y2014937D01*
X4033068Y2016291D01*
X4033416Y2017638D01*
X4033434Y2017919D01*
X4033461Y2018040D01*
X4033455Y2018249D01*
X4033519Y2019255D01*
X4033519Y2179320D01*
X4033370Y2180500D01*
X4033297Y2181684D01*
X4033172Y2182071D01*
X4033121Y2182476D01*
X4032683Y2183582D01*
X4032318Y2184711D01*
X4032100Y2185056D01*
X4031951Y2185434D01*
X4031254Y2186393D01*
X4030618Y2187400D01*
X4030320Y2187680D01*
X4030082Y2188008D01*
X4029168Y2188765D01*
X4028303Y2189581D01*
X4027946Y2189778D01*
X4027632Y2190038D01*
X4026558Y2190544D01*
X4025518Y2191119D01*
X4025123Y2191221D01*
X4024755Y2191394D01*
X4023590Y2191618D01*
X4022438Y2191916D01*
X4021833Y2191955D01*
X4021631Y2191993D01*
X4021425Y2191981D01*
X4020820Y2192019D01*
X3541046Y2192019D01*
X3540069Y2191896D01*
X3539082Y2191867D01*
X3538495Y2191697D01*
X3537890Y2191621D01*
X3536975Y2191259D01*
X3536025Y2190985D01*
X3535498Y2190675D01*
X3534932Y2190451D01*
X3534134Y2189872D01*
X3533284Y2189371D01*
X3532526Y2188704D01*
X3532358Y2188582D01*
X3532278Y2188486D01*
X3532067Y2188300D01*
X2221426Y877659D01*
X2220576Y876564D01*
X2219688Y875492D01*
X2219601Y875307D01*
X2219476Y875146D01*
X2218925Y873873D01*
X2218331Y872614D01*
X2218293Y872414D01*
X2218212Y872227D01*
X2217994Y870857D01*
X2217732Y869490D01*
X2217745Y869287D01*
X2217713Y869085D01*
X2217843Y867703D01*
X2217928Y866315D01*
X2217991Y866121D01*
X2218010Y865918D01*
X2218480Y864609D01*
X2218908Y863288D01*
X2219016Y863117D01*
X2219085Y862924D01*
X2219865Y861774D01*
X2220608Y860600D01*
X2220757Y860460D01*
X2220871Y860291D01*
X2221911Y859372D01*
X2222923Y858419D01*
X2223102Y858320D01*
X2223255Y858185D01*
X2224489Y857554D01*
X2225708Y856881D01*
X2225906Y856830D01*
X2226087Y856737D01*
X2227441Y856432D01*
X2228788Y856084D01*
X2229069Y856066D01*
X2229191Y856038D01*
X2229399Y856045D01*
X2230406Y855980D01*
X2389853Y855980D01*
X2390831Y856104D01*
X2391818Y856133D01*
X2392405Y856303D01*
X2393009Y856379D01*
X2393925Y856741D01*
X2394875Y857015D01*
X2395401Y857325D01*
X2395968Y857549D01*
X2396765Y858128D01*
X2397616Y858629D01*
X2398373Y859296D01*
X2398542Y859418D01*
X2398621Y859513D01*
X2398833Y859700D01*
X2534813Y995680D01*
X3898156Y995680D01*
X3899133Y995804D01*
X3900121Y995833D01*
X3900708Y996003D01*
X3901312Y996079D01*
X3902228Y996441D01*
X3903177Y996715D01*
X3903704Y997025D01*
X3904270Y997249D01*
X3905068Y997828D01*
X3905918Y998329D01*
X3906676Y998996D01*
X3906844Y999118D01*
X3906924Y999213D01*
X3907136Y999400D01*
X3913865Y1006129D01*
X3937117Y1015760D01*
X3962283Y1015760D01*
X3985535Y1006129D01*
X4003329Y988335D01*
X4012960Y965083D01*
X4012960Y939917D01*
X4003329Y916665D01*
X3985535Y898870D01*
X3962283Y889239D01*
X3937117Y889239D01*
X3913865Y898870D01*
X3907136Y905600D01*
X3906358Y906203D01*
X3905638Y906881D01*
X3905104Y907176D01*
X3904623Y907550D01*
X3903718Y907941D01*
X3902853Y908419D01*
X3902262Y908572D01*
X3901703Y908814D01*
X3900731Y908968D01*
X3899774Y909216D01*
X3898766Y909280D01*
X3898562Y909313D01*
X3898439Y909301D01*
X3898156Y909319D01*
X2575846Y909319D01*
X2574869Y909196D01*
X2573882Y909167D01*
X2573295Y908997D01*
X2572690Y908921D01*
X2571775Y908559D01*
X2570825Y908285D01*
X2570298Y907975D01*
X2569732Y907751D01*
X2568934Y907172D01*
X2568084Y906671D01*
X2567326Y906004D01*
X2567158Y905882D01*
X2567078Y905786D01*
X2566867Y905600D01*
X2430886Y769619D01*
X2247660Y769619D01*
X2246480Y769470D01*
X2245295Y769397D01*
X2244908Y769272D01*
X2244504Y769221D01*
X2243398Y768783D01*
X2242268Y768418D01*
X2241924Y768200D01*
X2241546Y768051D01*
X2240586Y767354D01*
X2239580Y766718D01*
X2239300Y766420D01*
X2238971Y766182D01*
X2238214Y765268D01*
X2237399Y764403D01*
X2237202Y764046D01*
X2236942Y763732D01*
X2236435Y762658D01*
X2235861Y761618D01*
X2235759Y761223D01*
X2235585Y760855D01*
X2235362Y759690D01*
X2235064Y758538D01*
X2235025Y757933D01*
X2234986Y757731D01*
X2234999Y757525D01*
X2234960Y756920D01*
X2234960Y749417D01*
X2225329Y726165D01*
X2207535Y708370D01*
X2184283Y698739D01*
X2159116Y698739D01*
X2156240Y699931D01*
X2155763Y700062D01*
X2155314Y700273D01*
X2154233Y700480D01*
X2153172Y700771D01*
X2152677Y700778D01*
X2152190Y700872D01*
X2151091Y700804D01*
X2149991Y700822D01*
X2149509Y700706D01*
X2149015Y700676D01*
X2147968Y700337D01*
X2146897Y700080D01*
X2146459Y699849D01*
X2145988Y699697D01*
X2145058Y699108D01*
X2144085Y698594D01*
X2143719Y698261D01*
X2143300Y697996D01*
X2142544Y697194D01*
X2141730Y696455D01*
X2141458Y696041D01*
X2141119Y695681D01*
X2140587Y694717D01*
X2139981Y693798D01*
X2139821Y693330D01*
X2139581Y692896D01*
X2139304Y691828D01*
X2138948Y690789D01*
X2138908Y690296D01*
X2138784Y689816D01*
X2138680Y688198D01*
X2138680Y528213D01*
X2075286Y464819D01*
X2045444Y464819D01*
X2044466Y464696D01*
X2043479Y464667D01*
X2042892Y464497D01*
X2042288Y464421D01*
X2041372Y464059D01*
X2040423Y463785D01*
X2039896Y463475D01*
X2039330Y463251D01*
X2038532Y462672D01*
X2037681Y462171D01*
X2036924Y461504D01*
X2036755Y461382D01*
X2036676Y461286D01*
X2036464Y461100D01*
X2029735Y454370D01*
X2006483Y444739D01*
X1981317Y444739D01*
G37*
%LPD*%
%LPC*%
G36*
X7068412Y1318259D02*
X7068412Y1318259D01*
X7034802Y1332181D01*
X7009081Y1357902D01*
X6995159Y1391512D01*
X6995159Y1427888D01*
X7009081Y1461498D01*
X7034802Y1487219D01*
X7068412Y1501140D01*
X7086569Y1501140D01*
X7087546Y1501264D01*
X7088533Y1501293D01*
X7089120Y1501463D01*
X7089725Y1501539D01*
X7090640Y1501901D01*
X7091590Y1502175D01*
X7092117Y1502485D01*
X7092683Y1502709D01*
X7093481Y1503288D01*
X7094331Y1503789D01*
X7095089Y1504456D01*
X7095257Y1504578D01*
X7095337Y1504673D01*
X7095548Y1504860D01*
X7491820Y1901131D01*
X7492423Y1901909D01*
X7493101Y1902628D01*
X7493340Y1903061D01*
X7493435Y1903176D01*
X7493480Y1903271D01*
X7493770Y1903644D01*
X7494161Y1904549D01*
X7494639Y1905413D01*
X7494792Y1906005D01*
X7495034Y1906564D01*
X7495188Y1907536D01*
X7495436Y1908493D01*
X7495500Y1909501D01*
X7495533Y1909705D01*
X7495521Y1909828D01*
X7495539Y1910111D01*
X7495539Y2212384D01*
X7495416Y2213361D01*
X7495387Y2214348D01*
X7495217Y2214935D01*
X7495141Y2215540D01*
X7494779Y2216455D01*
X7494505Y2217405D01*
X7494195Y2217932D01*
X7493971Y2218498D01*
X7493392Y2219296D01*
X7492891Y2220146D01*
X7492224Y2220904D01*
X7492102Y2221072D01*
X7492006Y2221152D01*
X7491820Y2221363D01*
X7478981Y2234202D01*
X7465059Y2267812D01*
X7465059Y2304188D01*
X7478981Y2337798D01*
X7504702Y2363519D01*
X7538312Y2377440D01*
X7574688Y2377440D01*
X7608298Y2363519D01*
X7634019Y2337798D01*
X7647940Y2304188D01*
X7647940Y2267812D01*
X7634019Y2234202D01*
X7621180Y2221363D01*
X7620577Y2220586D01*
X7619899Y2219866D01*
X7619604Y2219332D01*
X7619230Y2218850D01*
X7618838Y2217946D01*
X7618361Y2217081D01*
X7618208Y2216489D01*
X7617966Y2215931D01*
X7617812Y2214958D01*
X7617564Y2214002D01*
X7617499Y2212993D01*
X7617467Y2212789D01*
X7617478Y2212667D01*
X7617460Y2212384D01*
X7617460Y1867474D01*
X7608179Y1845068D01*
X7181760Y1418648D01*
X7181157Y1417871D01*
X7180479Y1417151D01*
X7180184Y1416617D01*
X7179810Y1416135D01*
X7179418Y1415231D01*
X7178941Y1414366D01*
X7178788Y1413774D01*
X7178546Y1413216D01*
X7178392Y1412243D01*
X7178144Y1411287D01*
X7178079Y1410278D01*
X7178047Y1410074D01*
X7178058Y1409952D01*
X7178040Y1409669D01*
X7178040Y1391512D01*
X7164119Y1357902D01*
X7138398Y1332181D01*
X7104788Y1318259D01*
X7068412Y1318259D01*
G37*
%LPD*%
%LPC*%
G36*
X5055243Y1526539D02*
X5055243Y1526539D01*
X5009498Y1545488D01*
X4974488Y1580498D01*
X4955539Y1626243D01*
X4955539Y1675757D01*
X4974488Y1721502D01*
X5009498Y1756512D01*
X5055243Y1775460D01*
X5104757Y1775460D01*
X5150502Y1756512D01*
X5185512Y1721502D01*
X5195267Y1697951D01*
X5195956Y1696743D01*
X5196605Y1695515D01*
X5196742Y1695365D01*
X5196843Y1695187D01*
X5197811Y1694187D01*
X5198744Y1693161D01*
X5198914Y1693049D01*
X5199056Y1692902D01*
X5200245Y1692173D01*
X5201401Y1691412D01*
X5201593Y1691346D01*
X5201768Y1691239D01*
X5203098Y1690829D01*
X5204409Y1690378D01*
X5204613Y1690362D01*
X5204808Y1690302D01*
X5206193Y1690235D01*
X5207580Y1690124D01*
X5207781Y1690159D01*
X5207985Y1690149D01*
X5209348Y1690430D01*
X5210715Y1690667D01*
X5210901Y1690750D01*
X5211101Y1690791D01*
X5212351Y1691402D01*
X5213616Y1691971D01*
X5213775Y1692098D01*
X5213959Y1692188D01*
X5215018Y1693090D01*
X5216103Y1693955D01*
X5216225Y1694118D01*
X5216381Y1694250D01*
X5217182Y1695387D01*
X5218018Y1696495D01*
X5218143Y1696750D01*
X5218213Y1696850D01*
X5218287Y1697043D01*
X5218733Y1697951D01*
X5228488Y1721502D01*
X5263498Y1756512D01*
X5309243Y1775460D01*
X5358757Y1775460D01*
X5404502Y1756512D01*
X5439512Y1721502D01*
X5449267Y1697951D01*
X5449956Y1696743D01*
X5450605Y1695515D01*
X5450742Y1695365D01*
X5450843Y1695187D01*
X5451811Y1694187D01*
X5452744Y1693161D01*
X5452914Y1693049D01*
X5453056Y1692902D01*
X5454245Y1692173D01*
X5455401Y1691412D01*
X5455593Y1691346D01*
X5455768Y1691239D01*
X5457098Y1690829D01*
X5458409Y1690378D01*
X5458613Y1690362D01*
X5458808Y1690302D01*
X5460193Y1690235D01*
X5461580Y1690124D01*
X5461781Y1690159D01*
X5461985Y1690149D01*
X5463348Y1690430D01*
X5464715Y1690667D01*
X5464901Y1690750D01*
X5465101Y1690791D01*
X5466351Y1691402D01*
X5467616Y1691971D01*
X5467775Y1692098D01*
X5467959Y1692188D01*
X5469018Y1693090D01*
X5470103Y1693955D01*
X5470225Y1694118D01*
X5470381Y1694250D01*
X5471182Y1695387D01*
X5472018Y1696495D01*
X5472143Y1696750D01*
X5472213Y1696850D01*
X5472287Y1697043D01*
X5472733Y1697951D01*
X5482488Y1721502D01*
X5517498Y1756512D01*
X5563243Y1775460D01*
X5612757Y1775460D01*
X5658502Y1756512D01*
X5693512Y1721502D01*
X5712460Y1675757D01*
X5712460Y1626243D01*
X5693512Y1580498D01*
X5658502Y1545488D01*
X5612757Y1526539D01*
X5563243Y1526539D01*
X5517498Y1545488D01*
X5482488Y1580498D01*
X5472733Y1604049D01*
X5472043Y1605257D01*
X5471395Y1606484D01*
X5471258Y1606635D01*
X5471157Y1606813D01*
X5470191Y1607810D01*
X5469256Y1608839D01*
X5469085Y1608952D01*
X5468943Y1609098D01*
X5467761Y1609823D01*
X5466598Y1610588D01*
X5466406Y1610654D01*
X5466232Y1610761D01*
X5464906Y1611170D01*
X5463590Y1611622D01*
X5463387Y1611638D01*
X5463192Y1611698D01*
X5461805Y1611765D01*
X5460419Y1611875D01*
X5460218Y1611841D01*
X5460014Y1611850D01*
X5458653Y1611570D01*
X5457284Y1611333D01*
X5457099Y1611250D01*
X5456899Y1611208D01*
X5455646Y1610597D01*
X5454383Y1610029D01*
X5454225Y1609902D01*
X5454040Y1609812D01*
X5452978Y1608908D01*
X5451897Y1608044D01*
X5451774Y1607882D01*
X5451619Y1607749D01*
X5450818Y1606613D01*
X5449982Y1605504D01*
X5449857Y1605250D01*
X5449786Y1605149D01*
X5449712Y1604955D01*
X5449267Y1604049D01*
X5439512Y1580498D01*
X5404502Y1545488D01*
X5358757Y1526539D01*
X5309243Y1526539D01*
X5263498Y1545488D01*
X5228488Y1580498D01*
X5218733Y1604049D01*
X5218043Y1605257D01*
X5217395Y1606484D01*
X5217258Y1606635D01*
X5217157Y1606813D01*
X5216191Y1607810D01*
X5215256Y1608839D01*
X5215085Y1608952D01*
X5214943Y1609098D01*
X5213761Y1609823D01*
X5212598Y1610588D01*
X5212406Y1610654D01*
X5212232Y1610761D01*
X5210906Y1611170D01*
X5209590Y1611622D01*
X5209387Y1611638D01*
X5209192Y1611698D01*
X5207805Y1611765D01*
X5206419Y1611875D01*
X5206218Y1611841D01*
X5206014Y1611850D01*
X5204653Y1611570D01*
X5203284Y1611333D01*
X5203099Y1611250D01*
X5202899Y1611208D01*
X5201646Y1610597D01*
X5200383Y1610029D01*
X5200225Y1609902D01*
X5200040Y1609812D01*
X5198978Y1608908D01*
X5197897Y1608044D01*
X5197774Y1607882D01*
X5197619Y1607749D01*
X5196818Y1606613D01*
X5195982Y1605504D01*
X5195857Y1605250D01*
X5195786Y1605149D01*
X5195712Y1604955D01*
X5195267Y1604049D01*
X5185512Y1580498D01*
X5150502Y1545488D01*
X5104757Y1526539D01*
X5055243Y1526539D01*
G37*
%LPD*%
%LPC*%
G36*
X8013774Y668019D02*
X8013774Y668019D01*
X7995919Y685874D01*
X7995919Y939726D01*
X8013774Y957580D01*
X8381926Y957580D01*
X8399780Y939726D01*
X8399780Y685874D01*
X8381926Y668019D01*
X8013774Y668019D01*
G37*
%LPD*%
%LPC*%
G36*
X1042043Y129539D02*
X1042043Y129539D01*
X996298Y148488D01*
X961288Y183498D01*
X942339Y229243D01*
X942339Y278757D01*
X961288Y324502D01*
X996298Y359512D01*
X1019849Y369267D01*
X1021057Y369956D01*
X1022284Y370605D01*
X1022435Y370742D01*
X1022613Y370843D01*
X1023610Y371809D01*
X1024639Y372744D01*
X1024752Y372915D01*
X1024898Y373056D01*
X1025623Y374239D01*
X1026388Y375401D01*
X1026454Y375594D01*
X1026561Y375768D01*
X1026970Y377094D01*
X1027422Y378410D01*
X1027438Y378613D01*
X1027498Y378808D01*
X1027565Y380195D01*
X1027675Y381581D01*
X1027641Y381782D01*
X1027650Y381985D01*
X1027370Y383347D01*
X1027133Y384715D01*
X1027050Y384901D01*
X1027008Y385101D01*
X1026397Y386353D01*
X1025829Y387617D01*
X1025702Y387775D01*
X1025612Y387959D01*
X1024708Y389022D01*
X1023844Y390103D01*
X1023682Y390225D01*
X1023549Y390381D01*
X1022413Y391182D01*
X1021304Y392018D01*
X1021050Y392143D01*
X1020949Y392214D01*
X1020755Y392288D01*
X1019849Y392733D01*
X996298Y402488D01*
X961288Y437498D01*
X942339Y483243D01*
X942339Y532757D01*
X961288Y578502D01*
X996298Y613512D01*
X1042043Y632460D01*
X1091557Y632460D01*
X1137302Y613512D01*
X1172312Y578502D01*
X1191260Y532757D01*
X1191260Y483243D01*
X1172312Y437498D01*
X1137302Y402488D01*
X1113751Y392733D01*
X1112543Y392044D01*
X1111315Y391395D01*
X1111165Y391258D01*
X1110987Y391157D01*
X1109987Y390188D01*
X1108961Y389256D01*
X1108849Y389086D01*
X1108702Y388944D01*
X1107973Y387754D01*
X1107212Y386599D01*
X1107146Y386407D01*
X1107039Y386232D01*
X1106629Y384902D01*
X1106178Y383590D01*
X1106162Y383387D01*
X1106102Y383192D01*
X1106035Y381806D01*
X1105924Y380419D01*
X1105959Y380218D01*
X1105949Y380015D01*
X1106230Y378652D01*
X1106467Y377285D01*
X1106550Y377099D01*
X1106591Y376899D01*
X1107202Y375648D01*
X1107771Y374383D01*
X1107898Y374224D01*
X1107988Y374041D01*
X1108890Y372981D01*
X1109755Y371897D01*
X1109918Y371775D01*
X1110050Y371619D01*
X1111187Y370818D01*
X1112295Y369982D01*
X1112550Y369857D01*
X1112650Y369786D01*
X1112843Y369713D01*
X1113751Y369267D01*
X1137302Y359512D01*
X1172312Y324502D01*
X1191260Y278757D01*
X1191260Y229243D01*
X1172312Y183498D01*
X1137302Y148488D01*
X1091557Y129539D01*
X1042043Y129539D01*
G37*
%LPD*%
D10*
X4826000Y1651000D03*
X5080000Y1651000D03*
X5334000Y1651000D03*
X5588000Y1651000D03*
X1066800Y508000D03*
X1066800Y254000D03*
D11*
X8115300Y812800D02*
X8267700Y812800D01*
X8267700Y1066800D02*
X8115300Y1066800D01*
D12*
X6096000Y304800D03*
D13*
X5918200Y127000D01*
X4064000Y127000D01*
X3937000Y254000D01*
X3937000Y508000D01*
D12*
X3937000Y508000D03*
X3822700Y1574800D03*
X3937000Y1955800D03*
D14*
X3937000Y1689100D02*
X3822700Y1574800D01*
X3937000Y1689100D02*
X3937000Y1955800D01*
D12*
X7556500Y2286000D03*
D13*
X7556500Y1879600D01*
X7086600Y1409700D01*
D12*
X7086600Y1409700D03*
D15*
X6781800Y2108200D03*
X6781800Y2019300D03*
X6781800Y1930400D03*
X7112000Y622300D03*
X7200900Y622300D03*
X7289800Y622300D03*
X6146800Y1397000D03*
X3390900Y711200D03*
X4191000Y1143000D03*
X4495800Y228600D03*
X1346200Y2171700D03*
X1384300Y1409700D03*
X1511300Y1143000D03*
X2019300Y1943100D03*
X5080000Y1016000D03*
X5207000Y1016000D03*
X5207000Y889000D03*
X5080000Y889000D03*
X3683000Y1397000D03*
X3937000Y1397000D03*
X3683000Y1143000D03*
X4318000Y1524000D03*
X3035300Y2082800D03*
X2794000Y1778000D03*
X2667000Y1651000D03*
X3175000Y1663700D03*
X3124200Y1308100D03*
X3683000Y2159000D03*
X3683000Y2540000D03*
X3429000Y2413000D03*
X2476500Y444500D03*
X2540000Y241300D03*
X2273300Y241300D03*
X1270000Y508000D03*
X1270000Y254000D03*
X1981200Y241300D03*
X7112000Y1651000D03*
X7493000Y1651000D03*
X7493000Y1397000D03*
X7747000Y2794000D03*
X7747000Y3048000D03*
X8001000Y3048000D03*
X8001000Y2794000D03*
X8509000Y2667000D03*
X8509000Y1143000D03*
X8509000Y762000D03*
X8509000Y508000D03*
X8001000Y508000D03*
X8001000Y254000D03*
X7747000Y508000D03*
X7747000Y254000D03*
X4318000Y1905000D03*
X5842000Y508000D03*
X647700Y2921000D03*
X254000Y2032000D03*
X254000Y1143000D03*
X635000Y2667000D03*
X635000Y508000D03*
X635000Y254000D03*
X254000Y1778000D03*
X254000Y1397000D03*
X1524000Y2921000D03*
X2794000Y2908300D03*
X2159000Y2540000D03*
X1016000Y2540000D03*
X4953000Y2540000D03*
X4699000Y1917700D03*
X6477000Y2413000D03*
X6731000Y2413000D03*
X6477000Y2286000D03*
X6604000Y2286000D03*
X6858000Y508000D03*
X6858000Y254000D03*
X6858000Y381000D03*
X6985000Y381000D03*
X6096000Y127000D03*
X7493000Y101600D03*
X6299200Y101600D03*
X4191000Y228600D03*
X6096000Y2667000D03*
X6096000Y2413000D03*
X3124200Y444500D03*
X3124200Y698500D03*
X2921000Y1397000D03*
X4953000Y508000D03*
X5334000Y254000D03*
X3797300Y76200D03*
X1892300Y711200D03*
X6311900Y1943100D03*
D16*
X6311900Y2667000D01*
D12*
X6451600Y3048000D03*
D13*
X6311900Y3048000D01*
X5829300Y3048000D01*
X5727700Y2946400D01*
D12*
X5727700Y2908300D03*
D16*
X6311900Y3048000D02*
X6311900Y2667000D01*
D13*
X5727700Y2908300D02*
X5727700Y2946400D01*
D15*
X1930400Y977900D03*
D16*
X1930400Y1231900D02*
X3619500Y2921000D01*
X5321300Y2921000D01*
X1930400Y1231900D02*
X1930400Y977900D01*
D15*
X5321300Y2921000D03*
X4826000Y1066800D03*
D16*
X4635500Y1066800D01*
X4203700Y1498600D02*
X4203700Y2235200D01*
X4203700Y1498600D02*
X4635500Y1066800D01*
D15*
X4203700Y2235200D03*
X1993900Y609600D03*
D16*
X1993900Y825500D01*
X3505200Y2336800D01*
X4165600Y2336800D01*
X4203700Y2298700D02*
X4203700Y2235200D01*
X4203700Y2298700D02*
X4165600Y2336800D01*
D15*
X4826000Y952500D03*
X4076700Y2235200D03*
D16*
X4076700Y1460500D01*
X4584700Y952500D01*
X4826000Y952500D01*
D15*
X1993900Y508000D03*
D16*
X2057400Y508000D01*
X2095500Y546100D02*
X2095500Y812800D01*
X3517900Y2235200D01*
X4076700Y2235200D01*
X2095500Y546100D02*
X2057400Y508000D01*
D15*
X2006600Y1054100D03*
D16*
X2057400Y1054100D01*
X2159000Y1155700D01*
X2159000Y1346200D01*
X3632200Y2819400D01*
X5080000Y2819400D01*
D15*
X5168900Y2082800D03*
D16*
X5168900Y2730500D01*
X5080000Y2819400D01*
D15*
X2171700Y762000D03*
D16*
X2222500Y812800D02*
X2413000Y812800D01*
X2552700Y952500D01*
X3086664Y952500D01*
X3949700Y952500D01*
D15*
X3949700Y952500D03*
D16*
X2222500Y812800D02*
X2171700Y762000D01*
D15*
X1803400Y609600D03*
D16*
X1803400Y1308100D01*
X2654300Y2159000D01*
D15*
X2654300Y2159000D03*
X1524000Y241300D03*
D16*
X1701800Y266700D02*
X1701800Y1333500D01*
X2260600Y1892300D01*
D15*
X2260600Y2235200D03*
D16*
X2260600Y1892300D01*
X1701800Y266700D02*
X1676400Y241300D01*
X1524000Y241300D01*
D15*
X4889500Y292100D03*
X1905000Y152400D03*
D16*
X3403600Y152400D01*
X3898900Y647700D01*
X4254500Y647700D01*
X4610100Y292100D01*
X4889500Y292100D01*
M02*
