G04 EAGLE Gerber RS-274X export*
G75*
%MOMM*%
%FSLAX25Y25*%
%LPD*%
%AMOC8*
5,1,8,0,0,1.08239X$1,22.5*%
G01*
%ADD10C,0.000000*%
%ADD11C,0.254000*%


D10*
X8222000Y2921000D02*
X8222048Y2924927D01*
X8222193Y2928851D01*
X8222434Y2932770D01*
X8222770Y2936683D01*
X8223203Y2940586D01*
X8223732Y2944477D01*
X8224356Y2948354D01*
X8225074Y2952214D01*
X8225888Y2956056D01*
X8226795Y2959877D01*
X8227796Y2963674D01*
X8228890Y2967446D01*
X8230075Y2971189D01*
X8231353Y2974902D01*
X8232721Y2978583D01*
X8234179Y2982229D01*
X8235726Y2985839D01*
X8237362Y2989409D01*
X8239084Y2992938D01*
X8240893Y2996423D01*
X8242786Y2999864D01*
X8244763Y3003256D01*
X8246823Y3006600D01*
X8248965Y3009891D01*
X8251186Y3013129D01*
X8253487Y3016312D01*
X8255865Y3019437D01*
X8258318Y3022503D01*
X8260847Y3025508D01*
X8263448Y3028449D01*
X8266120Y3031326D01*
X8268863Y3034137D01*
X8271674Y3036880D01*
X8274551Y3039552D01*
X8277492Y3042153D01*
X8280497Y3044682D01*
X8283563Y3047135D01*
X8286688Y3049513D01*
X8289871Y3051814D01*
X8293109Y3054035D01*
X8296400Y3056177D01*
X8299744Y3058237D01*
X8303136Y3060214D01*
X8306577Y3062107D01*
X8310062Y3063916D01*
X8313591Y3065638D01*
X8317161Y3067274D01*
X8320771Y3068821D01*
X8324417Y3070279D01*
X8328098Y3071647D01*
X8331811Y3072925D01*
X8335554Y3074110D01*
X8339326Y3075204D01*
X8343123Y3076205D01*
X8346944Y3077112D01*
X8350786Y3077926D01*
X8354646Y3078644D01*
X8358523Y3079268D01*
X8362414Y3079797D01*
X8366317Y3080230D01*
X8370230Y3080566D01*
X8374149Y3080807D01*
X8378073Y3080952D01*
X8382000Y3081000D01*
X8385927Y3080952D01*
X8389851Y3080807D01*
X8393770Y3080566D01*
X8397683Y3080230D01*
X8401586Y3079797D01*
X8405477Y3079268D01*
X8409354Y3078644D01*
X8413214Y3077926D01*
X8417056Y3077112D01*
X8420877Y3076205D01*
X8424674Y3075204D01*
X8428446Y3074110D01*
X8432189Y3072925D01*
X8435902Y3071647D01*
X8439583Y3070279D01*
X8443229Y3068821D01*
X8446839Y3067274D01*
X8450409Y3065638D01*
X8453938Y3063916D01*
X8457423Y3062107D01*
X8460864Y3060214D01*
X8464256Y3058237D01*
X8467600Y3056177D01*
X8470891Y3054035D01*
X8474129Y3051814D01*
X8477312Y3049513D01*
X8480437Y3047135D01*
X8483503Y3044682D01*
X8486508Y3042153D01*
X8489449Y3039552D01*
X8492326Y3036880D01*
X8495137Y3034137D01*
X8497880Y3031326D01*
X8500552Y3028449D01*
X8503153Y3025508D01*
X8505682Y3022503D01*
X8508135Y3019437D01*
X8510513Y3016312D01*
X8512814Y3013129D01*
X8515035Y3009891D01*
X8517177Y3006600D01*
X8519237Y3003256D01*
X8521214Y2999864D01*
X8523107Y2996423D01*
X8524916Y2992938D01*
X8526638Y2989409D01*
X8528274Y2985839D01*
X8529821Y2982229D01*
X8531279Y2978583D01*
X8532647Y2974902D01*
X8533925Y2971189D01*
X8535110Y2967446D01*
X8536204Y2963674D01*
X8537205Y2959877D01*
X8538112Y2956056D01*
X8538926Y2952214D01*
X8539644Y2948354D01*
X8540268Y2944477D01*
X8540797Y2940586D01*
X8541230Y2936683D01*
X8541566Y2932770D01*
X8541807Y2928851D01*
X8541952Y2924927D01*
X8542000Y2921000D01*
X8541952Y2917073D01*
X8541807Y2913149D01*
X8541566Y2909230D01*
X8541230Y2905317D01*
X8540797Y2901414D01*
X8540268Y2897523D01*
X8539644Y2893646D01*
X8538926Y2889786D01*
X8538112Y2885944D01*
X8537205Y2882123D01*
X8536204Y2878326D01*
X8535110Y2874554D01*
X8533925Y2870811D01*
X8532647Y2867098D01*
X8531279Y2863417D01*
X8529821Y2859771D01*
X8528274Y2856161D01*
X8526638Y2852591D01*
X8524916Y2849062D01*
X8523107Y2845577D01*
X8521214Y2842136D01*
X8519237Y2838744D01*
X8517177Y2835400D01*
X8515035Y2832109D01*
X8512814Y2828871D01*
X8510513Y2825688D01*
X8508135Y2822563D01*
X8505682Y2819497D01*
X8503153Y2816492D01*
X8500552Y2813551D01*
X8497880Y2810674D01*
X8495137Y2807863D01*
X8492326Y2805120D01*
X8489449Y2802448D01*
X8486508Y2799847D01*
X8483503Y2797318D01*
X8480437Y2794865D01*
X8477312Y2792487D01*
X8474129Y2790186D01*
X8470891Y2787965D01*
X8467600Y2785823D01*
X8464256Y2783763D01*
X8460864Y2781786D01*
X8457423Y2779893D01*
X8453938Y2778084D01*
X8450409Y2776362D01*
X8446839Y2774726D01*
X8443229Y2773179D01*
X8439583Y2771721D01*
X8435902Y2770353D01*
X8432189Y2769075D01*
X8428446Y2767890D01*
X8424674Y2766796D01*
X8420877Y2765795D01*
X8417056Y2764888D01*
X8413214Y2764074D01*
X8409354Y2763356D01*
X8405477Y2762732D01*
X8401586Y2762203D01*
X8397683Y2761770D01*
X8393770Y2761434D01*
X8389851Y2761193D01*
X8385927Y2761048D01*
X8382000Y2761000D01*
X8378073Y2761048D01*
X8374149Y2761193D01*
X8370230Y2761434D01*
X8366317Y2761770D01*
X8362414Y2762203D01*
X8358523Y2762732D01*
X8354646Y2763356D01*
X8350786Y2764074D01*
X8346944Y2764888D01*
X8343123Y2765795D01*
X8339326Y2766796D01*
X8335554Y2767890D01*
X8331811Y2769075D01*
X8328098Y2770353D01*
X8324417Y2771721D01*
X8320771Y2773179D01*
X8317161Y2774726D01*
X8313591Y2776362D01*
X8310062Y2778084D01*
X8306577Y2779893D01*
X8303136Y2781786D01*
X8299744Y2783763D01*
X8296400Y2785823D01*
X8293109Y2787965D01*
X8289871Y2790186D01*
X8286688Y2792487D01*
X8283563Y2794865D01*
X8280497Y2797318D01*
X8277492Y2799847D01*
X8274551Y2802448D01*
X8271674Y2805120D01*
X8268863Y2807863D01*
X8266120Y2810674D01*
X8263448Y2813551D01*
X8260847Y2816492D01*
X8258318Y2819497D01*
X8255865Y2822563D01*
X8253487Y2825688D01*
X8251186Y2828871D01*
X8248965Y2832109D01*
X8246823Y2835400D01*
X8244763Y2838744D01*
X8242786Y2842136D01*
X8240893Y2845577D01*
X8239084Y2849062D01*
X8237362Y2852591D01*
X8235726Y2856161D01*
X8234179Y2859771D01*
X8232721Y2863417D01*
X8231353Y2867098D01*
X8230075Y2870811D01*
X8228890Y2874554D01*
X8227796Y2878326D01*
X8226795Y2882123D01*
X8225888Y2885944D01*
X8225074Y2889786D01*
X8224356Y2893646D01*
X8223732Y2897523D01*
X8223203Y2901414D01*
X8222770Y2905317D01*
X8222434Y2909230D01*
X8222193Y2913149D01*
X8222048Y2917073D01*
X8222000Y2921000D01*
X8222000Y254000D02*
X8222048Y257927D01*
X8222193Y261851D01*
X8222434Y265770D01*
X8222770Y269683D01*
X8223203Y273586D01*
X8223732Y277477D01*
X8224356Y281354D01*
X8225074Y285214D01*
X8225888Y289056D01*
X8226795Y292877D01*
X8227796Y296674D01*
X8228890Y300446D01*
X8230075Y304189D01*
X8231353Y307902D01*
X8232721Y311583D01*
X8234179Y315229D01*
X8235726Y318839D01*
X8237362Y322409D01*
X8239084Y325938D01*
X8240893Y329423D01*
X8242786Y332864D01*
X8244763Y336256D01*
X8246823Y339600D01*
X8248965Y342891D01*
X8251186Y346129D01*
X8253487Y349312D01*
X8255865Y352437D01*
X8258318Y355503D01*
X8260847Y358508D01*
X8263448Y361449D01*
X8266120Y364326D01*
X8268863Y367137D01*
X8271674Y369880D01*
X8274551Y372552D01*
X8277492Y375153D01*
X8280497Y377682D01*
X8283563Y380135D01*
X8286688Y382513D01*
X8289871Y384814D01*
X8293109Y387035D01*
X8296400Y389177D01*
X8299744Y391237D01*
X8303136Y393214D01*
X8306577Y395107D01*
X8310062Y396916D01*
X8313591Y398638D01*
X8317161Y400274D01*
X8320771Y401821D01*
X8324417Y403279D01*
X8328098Y404647D01*
X8331811Y405925D01*
X8335554Y407110D01*
X8339326Y408204D01*
X8343123Y409205D01*
X8346944Y410112D01*
X8350786Y410926D01*
X8354646Y411644D01*
X8358523Y412268D01*
X8362414Y412797D01*
X8366317Y413230D01*
X8370230Y413566D01*
X8374149Y413807D01*
X8378073Y413952D01*
X8382000Y414000D01*
X8385927Y413952D01*
X8389851Y413807D01*
X8393770Y413566D01*
X8397683Y413230D01*
X8401586Y412797D01*
X8405477Y412268D01*
X8409354Y411644D01*
X8413214Y410926D01*
X8417056Y410112D01*
X8420877Y409205D01*
X8424674Y408204D01*
X8428446Y407110D01*
X8432189Y405925D01*
X8435902Y404647D01*
X8439583Y403279D01*
X8443229Y401821D01*
X8446839Y400274D01*
X8450409Y398638D01*
X8453938Y396916D01*
X8457423Y395107D01*
X8460864Y393214D01*
X8464256Y391237D01*
X8467600Y389177D01*
X8470891Y387035D01*
X8474129Y384814D01*
X8477312Y382513D01*
X8480437Y380135D01*
X8483503Y377682D01*
X8486508Y375153D01*
X8489449Y372552D01*
X8492326Y369880D01*
X8495137Y367137D01*
X8497880Y364326D01*
X8500552Y361449D01*
X8503153Y358508D01*
X8505682Y355503D01*
X8508135Y352437D01*
X8510513Y349312D01*
X8512814Y346129D01*
X8515035Y342891D01*
X8517177Y339600D01*
X8519237Y336256D01*
X8521214Y332864D01*
X8523107Y329423D01*
X8524916Y325938D01*
X8526638Y322409D01*
X8528274Y318839D01*
X8529821Y315229D01*
X8531279Y311583D01*
X8532647Y307902D01*
X8533925Y304189D01*
X8535110Y300446D01*
X8536204Y296674D01*
X8537205Y292877D01*
X8538112Y289056D01*
X8538926Y285214D01*
X8539644Y281354D01*
X8540268Y277477D01*
X8540797Y273586D01*
X8541230Y269683D01*
X8541566Y265770D01*
X8541807Y261851D01*
X8541952Y257927D01*
X8542000Y254000D01*
X8541952Y250073D01*
X8541807Y246149D01*
X8541566Y242230D01*
X8541230Y238317D01*
X8540797Y234414D01*
X8540268Y230523D01*
X8539644Y226646D01*
X8538926Y222786D01*
X8538112Y218944D01*
X8537205Y215123D01*
X8536204Y211326D01*
X8535110Y207554D01*
X8533925Y203811D01*
X8532647Y200098D01*
X8531279Y196417D01*
X8529821Y192771D01*
X8528274Y189161D01*
X8526638Y185591D01*
X8524916Y182062D01*
X8523107Y178577D01*
X8521214Y175136D01*
X8519237Y171744D01*
X8517177Y168400D01*
X8515035Y165109D01*
X8512814Y161871D01*
X8510513Y158688D01*
X8508135Y155563D01*
X8505682Y152497D01*
X8503153Y149492D01*
X8500552Y146551D01*
X8497880Y143674D01*
X8495137Y140863D01*
X8492326Y138120D01*
X8489449Y135448D01*
X8486508Y132847D01*
X8483503Y130318D01*
X8480437Y127865D01*
X8477312Y125487D01*
X8474129Y123186D01*
X8470891Y120965D01*
X8467600Y118823D01*
X8464256Y116763D01*
X8460864Y114786D01*
X8457423Y112893D01*
X8453938Y111084D01*
X8450409Y109362D01*
X8446839Y107726D01*
X8443229Y106179D01*
X8439583Y104721D01*
X8435902Y103353D01*
X8432189Y102075D01*
X8428446Y100890D01*
X8424674Y99796D01*
X8420877Y98795D01*
X8417056Y97888D01*
X8413214Y97074D01*
X8409354Y96356D01*
X8405477Y95732D01*
X8401586Y95203D01*
X8397683Y94770D01*
X8393770Y94434D01*
X8389851Y94193D01*
X8385927Y94048D01*
X8382000Y94000D01*
X8378073Y94048D01*
X8374149Y94193D01*
X8370230Y94434D01*
X8366317Y94770D01*
X8362414Y95203D01*
X8358523Y95732D01*
X8354646Y96356D01*
X8350786Y97074D01*
X8346944Y97888D01*
X8343123Y98795D01*
X8339326Y99796D01*
X8335554Y100890D01*
X8331811Y102075D01*
X8328098Y103353D01*
X8324417Y104721D01*
X8320771Y106179D01*
X8317161Y107726D01*
X8313591Y109362D01*
X8310062Y111084D01*
X8306577Y112893D01*
X8303136Y114786D01*
X8299744Y116763D01*
X8296400Y118823D01*
X8293109Y120965D01*
X8289871Y123186D01*
X8286688Y125487D01*
X8283563Y127865D01*
X8280497Y130318D01*
X8277492Y132847D01*
X8274551Y135448D01*
X8271674Y138120D01*
X8268863Y140863D01*
X8266120Y143674D01*
X8263448Y146551D01*
X8260847Y149492D01*
X8258318Y152497D01*
X8255865Y155563D01*
X8253487Y158688D01*
X8251186Y161871D01*
X8248965Y165109D01*
X8246823Y168400D01*
X8244763Y171744D01*
X8242786Y175136D01*
X8240893Y178577D01*
X8239084Y182062D01*
X8237362Y185591D01*
X8235726Y189161D01*
X8234179Y192771D01*
X8232721Y196417D01*
X8231353Y200098D01*
X8230075Y203811D01*
X8228890Y207554D01*
X8227796Y211326D01*
X8226795Y215123D01*
X8225888Y218944D01*
X8225074Y222786D01*
X8224356Y226646D01*
X8223732Y230523D01*
X8223203Y234414D01*
X8222770Y238317D01*
X8222434Y242230D01*
X8222193Y246149D01*
X8222048Y250073D01*
X8222000Y254000D01*
X94000Y2921000D02*
X94048Y2924927D01*
X94193Y2928851D01*
X94434Y2932770D01*
X94770Y2936683D01*
X95203Y2940586D01*
X95732Y2944477D01*
X96356Y2948354D01*
X97074Y2952214D01*
X97888Y2956056D01*
X98795Y2959877D01*
X99796Y2963674D01*
X100890Y2967446D01*
X102075Y2971189D01*
X103353Y2974902D01*
X104721Y2978583D01*
X106179Y2982229D01*
X107726Y2985839D01*
X109362Y2989409D01*
X111084Y2992938D01*
X112893Y2996423D01*
X114786Y2999864D01*
X116763Y3003256D01*
X118823Y3006600D01*
X120965Y3009891D01*
X123186Y3013129D01*
X125487Y3016312D01*
X127865Y3019437D01*
X130318Y3022503D01*
X132847Y3025508D01*
X135448Y3028449D01*
X138120Y3031326D01*
X140863Y3034137D01*
X143674Y3036880D01*
X146551Y3039552D01*
X149492Y3042153D01*
X152497Y3044682D01*
X155563Y3047135D01*
X158688Y3049513D01*
X161871Y3051814D01*
X165109Y3054035D01*
X168400Y3056177D01*
X171744Y3058237D01*
X175136Y3060214D01*
X178577Y3062107D01*
X182062Y3063916D01*
X185591Y3065638D01*
X189161Y3067274D01*
X192771Y3068821D01*
X196417Y3070279D01*
X200098Y3071647D01*
X203811Y3072925D01*
X207554Y3074110D01*
X211326Y3075204D01*
X215123Y3076205D01*
X218944Y3077112D01*
X222786Y3077926D01*
X226646Y3078644D01*
X230523Y3079268D01*
X234414Y3079797D01*
X238317Y3080230D01*
X242230Y3080566D01*
X246149Y3080807D01*
X250073Y3080952D01*
X254000Y3081000D01*
X257927Y3080952D01*
X261851Y3080807D01*
X265770Y3080566D01*
X269683Y3080230D01*
X273586Y3079797D01*
X277477Y3079268D01*
X281354Y3078644D01*
X285214Y3077926D01*
X289056Y3077112D01*
X292877Y3076205D01*
X296674Y3075204D01*
X300446Y3074110D01*
X304189Y3072925D01*
X307902Y3071647D01*
X311583Y3070279D01*
X315229Y3068821D01*
X318839Y3067274D01*
X322409Y3065638D01*
X325938Y3063916D01*
X329423Y3062107D01*
X332864Y3060214D01*
X336256Y3058237D01*
X339600Y3056177D01*
X342891Y3054035D01*
X346129Y3051814D01*
X349312Y3049513D01*
X352437Y3047135D01*
X355503Y3044682D01*
X358508Y3042153D01*
X361449Y3039552D01*
X364326Y3036880D01*
X367137Y3034137D01*
X369880Y3031326D01*
X372552Y3028449D01*
X375153Y3025508D01*
X377682Y3022503D01*
X380135Y3019437D01*
X382513Y3016312D01*
X384814Y3013129D01*
X387035Y3009891D01*
X389177Y3006600D01*
X391237Y3003256D01*
X393214Y2999864D01*
X395107Y2996423D01*
X396916Y2992938D01*
X398638Y2989409D01*
X400274Y2985839D01*
X401821Y2982229D01*
X403279Y2978583D01*
X404647Y2974902D01*
X405925Y2971189D01*
X407110Y2967446D01*
X408204Y2963674D01*
X409205Y2959877D01*
X410112Y2956056D01*
X410926Y2952214D01*
X411644Y2948354D01*
X412268Y2944477D01*
X412797Y2940586D01*
X413230Y2936683D01*
X413566Y2932770D01*
X413807Y2928851D01*
X413952Y2924927D01*
X414000Y2921000D01*
X413952Y2917073D01*
X413807Y2913149D01*
X413566Y2909230D01*
X413230Y2905317D01*
X412797Y2901414D01*
X412268Y2897523D01*
X411644Y2893646D01*
X410926Y2889786D01*
X410112Y2885944D01*
X409205Y2882123D01*
X408204Y2878326D01*
X407110Y2874554D01*
X405925Y2870811D01*
X404647Y2867098D01*
X403279Y2863417D01*
X401821Y2859771D01*
X400274Y2856161D01*
X398638Y2852591D01*
X396916Y2849062D01*
X395107Y2845577D01*
X393214Y2842136D01*
X391237Y2838744D01*
X389177Y2835400D01*
X387035Y2832109D01*
X384814Y2828871D01*
X382513Y2825688D01*
X380135Y2822563D01*
X377682Y2819497D01*
X375153Y2816492D01*
X372552Y2813551D01*
X369880Y2810674D01*
X367137Y2807863D01*
X364326Y2805120D01*
X361449Y2802448D01*
X358508Y2799847D01*
X355503Y2797318D01*
X352437Y2794865D01*
X349312Y2792487D01*
X346129Y2790186D01*
X342891Y2787965D01*
X339600Y2785823D01*
X336256Y2783763D01*
X332864Y2781786D01*
X329423Y2779893D01*
X325938Y2778084D01*
X322409Y2776362D01*
X318839Y2774726D01*
X315229Y2773179D01*
X311583Y2771721D01*
X307902Y2770353D01*
X304189Y2769075D01*
X300446Y2767890D01*
X296674Y2766796D01*
X292877Y2765795D01*
X289056Y2764888D01*
X285214Y2764074D01*
X281354Y2763356D01*
X277477Y2762732D01*
X273586Y2762203D01*
X269683Y2761770D01*
X265770Y2761434D01*
X261851Y2761193D01*
X257927Y2761048D01*
X254000Y2761000D01*
X250073Y2761048D01*
X246149Y2761193D01*
X242230Y2761434D01*
X238317Y2761770D01*
X234414Y2762203D01*
X230523Y2762732D01*
X226646Y2763356D01*
X222786Y2764074D01*
X218944Y2764888D01*
X215123Y2765795D01*
X211326Y2766796D01*
X207554Y2767890D01*
X203811Y2769075D01*
X200098Y2770353D01*
X196417Y2771721D01*
X192771Y2773179D01*
X189161Y2774726D01*
X185591Y2776362D01*
X182062Y2778084D01*
X178577Y2779893D01*
X175136Y2781786D01*
X171744Y2783763D01*
X168400Y2785823D01*
X165109Y2787965D01*
X161871Y2790186D01*
X158688Y2792487D01*
X155563Y2794865D01*
X152497Y2797318D01*
X149492Y2799847D01*
X146551Y2802448D01*
X143674Y2805120D01*
X140863Y2807863D01*
X138120Y2810674D01*
X135448Y2813551D01*
X132847Y2816492D01*
X130318Y2819497D01*
X127865Y2822563D01*
X125487Y2825688D01*
X123186Y2828871D01*
X120965Y2832109D01*
X118823Y2835400D01*
X116763Y2838744D01*
X114786Y2842136D01*
X112893Y2845577D01*
X111084Y2849062D01*
X109362Y2852591D01*
X107726Y2856161D01*
X106179Y2859771D01*
X104721Y2863417D01*
X103353Y2867098D01*
X102075Y2870811D01*
X100890Y2874554D01*
X99796Y2878326D01*
X98795Y2882123D01*
X97888Y2885944D01*
X97074Y2889786D01*
X96356Y2893646D01*
X95732Y2897523D01*
X95203Y2901414D01*
X94770Y2905317D01*
X94434Y2909230D01*
X94193Y2913149D01*
X94048Y2917073D01*
X94000Y2921000D01*
X94000Y254000D02*
X94048Y257927D01*
X94193Y261851D01*
X94434Y265770D01*
X94770Y269683D01*
X95203Y273586D01*
X95732Y277477D01*
X96356Y281354D01*
X97074Y285214D01*
X97888Y289056D01*
X98795Y292877D01*
X99796Y296674D01*
X100890Y300446D01*
X102075Y304189D01*
X103353Y307902D01*
X104721Y311583D01*
X106179Y315229D01*
X107726Y318839D01*
X109362Y322409D01*
X111084Y325938D01*
X112893Y329423D01*
X114786Y332864D01*
X116763Y336256D01*
X118823Y339600D01*
X120965Y342891D01*
X123186Y346129D01*
X125487Y349312D01*
X127865Y352437D01*
X130318Y355503D01*
X132847Y358508D01*
X135448Y361449D01*
X138120Y364326D01*
X140863Y367137D01*
X143674Y369880D01*
X146551Y372552D01*
X149492Y375153D01*
X152497Y377682D01*
X155563Y380135D01*
X158688Y382513D01*
X161871Y384814D01*
X165109Y387035D01*
X168400Y389177D01*
X171744Y391237D01*
X175136Y393214D01*
X178577Y395107D01*
X182062Y396916D01*
X185591Y398638D01*
X189161Y400274D01*
X192771Y401821D01*
X196417Y403279D01*
X200098Y404647D01*
X203811Y405925D01*
X207554Y407110D01*
X211326Y408204D01*
X215123Y409205D01*
X218944Y410112D01*
X222786Y410926D01*
X226646Y411644D01*
X230523Y412268D01*
X234414Y412797D01*
X238317Y413230D01*
X242230Y413566D01*
X246149Y413807D01*
X250073Y413952D01*
X254000Y414000D01*
X257927Y413952D01*
X261851Y413807D01*
X265770Y413566D01*
X269683Y413230D01*
X273586Y412797D01*
X277477Y412268D01*
X281354Y411644D01*
X285214Y410926D01*
X289056Y410112D01*
X292877Y409205D01*
X296674Y408204D01*
X300446Y407110D01*
X304189Y405925D01*
X307902Y404647D01*
X311583Y403279D01*
X315229Y401821D01*
X318839Y400274D01*
X322409Y398638D01*
X325938Y396916D01*
X329423Y395107D01*
X332864Y393214D01*
X336256Y391237D01*
X339600Y389177D01*
X342891Y387035D01*
X346129Y384814D01*
X349312Y382513D01*
X352437Y380135D01*
X355503Y377682D01*
X358508Y375153D01*
X361449Y372552D01*
X364326Y369880D01*
X367137Y367137D01*
X369880Y364326D01*
X372552Y361449D01*
X375153Y358508D01*
X377682Y355503D01*
X380135Y352437D01*
X382513Y349312D01*
X384814Y346129D01*
X387035Y342891D01*
X389177Y339600D01*
X391237Y336256D01*
X393214Y332864D01*
X395107Y329423D01*
X396916Y325938D01*
X398638Y322409D01*
X400274Y318839D01*
X401821Y315229D01*
X403279Y311583D01*
X404647Y307902D01*
X405925Y304189D01*
X407110Y300446D01*
X408204Y296674D01*
X409205Y292877D01*
X410112Y289056D01*
X410926Y285214D01*
X411644Y281354D01*
X412268Y277477D01*
X412797Y273586D01*
X413230Y269683D01*
X413566Y265770D01*
X413807Y261851D01*
X413952Y257927D01*
X414000Y254000D01*
X413952Y250073D01*
X413807Y246149D01*
X413566Y242230D01*
X413230Y238317D01*
X412797Y234414D01*
X412268Y230523D01*
X411644Y226646D01*
X410926Y222786D01*
X410112Y218944D01*
X409205Y215123D01*
X408204Y211326D01*
X407110Y207554D01*
X405925Y203811D01*
X404647Y200098D01*
X403279Y196417D01*
X401821Y192771D01*
X400274Y189161D01*
X398638Y185591D01*
X396916Y182062D01*
X395107Y178577D01*
X393214Y175136D01*
X391237Y171744D01*
X389177Y168400D01*
X387035Y165109D01*
X384814Y161871D01*
X382513Y158688D01*
X380135Y155563D01*
X377682Y152497D01*
X375153Y149492D01*
X372552Y146551D01*
X369880Y143674D01*
X367137Y140863D01*
X364326Y138120D01*
X361449Y135448D01*
X358508Y132847D01*
X355503Y130318D01*
X352437Y127865D01*
X349312Y125487D01*
X346129Y123186D01*
X342891Y120965D01*
X339600Y118823D01*
X336256Y116763D01*
X332864Y114786D01*
X329423Y112893D01*
X325938Y111084D01*
X322409Y109362D01*
X318839Y107726D01*
X315229Y106179D01*
X311583Y104721D01*
X307902Y103353D01*
X304189Y102075D01*
X300446Y100890D01*
X296674Y99796D01*
X292877Y98795D01*
X289056Y97888D01*
X285214Y97074D01*
X281354Y96356D01*
X277477Y95732D01*
X273586Y95203D01*
X269683Y94770D01*
X265770Y94434D01*
X261851Y94193D01*
X257927Y94048D01*
X254000Y94000D01*
X250073Y94048D01*
X246149Y94193D01*
X242230Y94434D01*
X238317Y94770D01*
X234414Y95203D01*
X230523Y95732D01*
X226646Y96356D01*
X222786Y97074D01*
X218944Y97888D01*
X215123Y98795D01*
X211326Y99796D01*
X207554Y100890D01*
X203811Y102075D01*
X200098Y103353D01*
X196417Y104721D01*
X192771Y106179D01*
X189161Y107726D01*
X185591Y109362D01*
X182062Y111084D01*
X178577Y112893D01*
X175136Y114786D01*
X171744Y116763D01*
X168400Y118823D01*
X165109Y120965D01*
X161871Y123186D01*
X158688Y125487D01*
X155563Y127865D01*
X152497Y130318D01*
X149492Y132847D01*
X146551Y135448D01*
X143674Y138120D01*
X140863Y140863D01*
X138120Y143674D01*
X135448Y146551D01*
X132847Y149492D01*
X130318Y152497D01*
X127865Y155563D01*
X125487Y158688D01*
X123186Y161871D01*
X120965Y165109D01*
X118823Y168400D01*
X116763Y171744D01*
X114786Y175136D01*
X112893Y178577D01*
X111084Y182062D01*
X109362Y185591D01*
X107726Y189161D01*
X106179Y192771D01*
X104721Y196417D01*
X103353Y200098D01*
X102075Y203811D01*
X100890Y207554D01*
X99796Y211326D01*
X98795Y215123D01*
X97888Y218944D01*
X97074Y222786D01*
X96356Y226646D01*
X95732Y230523D01*
X95203Y234414D01*
X94770Y238317D01*
X94434Y242230D01*
X94193Y246149D01*
X94048Y250073D01*
X94000Y254000D01*
D11*
X0Y200000D02*
X0Y2975000D01*
X58Y2979833D01*
X234Y2984663D01*
X525Y2989487D01*
X934Y2994303D01*
X1458Y2999107D01*
X2099Y3003898D01*
X2855Y3008671D01*
X3726Y3013425D01*
X4712Y3018157D01*
X5812Y3022863D01*
X7025Y3027541D01*
X8351Y3032189D01*
X9789Y3036803D01*
X11338Y3041382D01*
X12997Y3045921D01*
X14765Y3050419D01*
X16642Y3054873D01*
X18625Y3059280D01*
X20715Y3063638D01*
X22909Y3067945D01*
X25206Y3072197D01*
X27606Y3076392D01*
X30106Y3080528D01*
X32706Y3084603D01*
X35403Y3088613D01*
X38197Y3092557D01*
X41084Y3096433D01*
X44065Y3100237D01*
X47137Y3103968D01*
X50298Y3107625D01*
X53546Y3111203D01*
X56880Y3114702D01*
X60298Y3118120D01*
X63797Y3121454D01*
X67375Y3124702D01*
X71032Y3127863D01*
X74763Y3130935D01*
X78567Y3133916D01*
X82443Y3136803D01*
X86387Y3139597D01*
X90397Y3142294D01*
X94472Y3144894D01*
X98608Y3147394D01*
X102803Y3149794D01*
X107055Y3152091D01*
X111362Y3154285D01*
X115720Y3156375D01*
X120127Y3158358D01*
X124581Y3160235D01*
X129079Y3162003D01*
X133618Y3163662D01*
X138197Y3165211D01*
X142811Y3166649D01*
X147459Y3167975D01*
X152137Y3169188D01*
X156843Y3170288D01*
X161575Y3171274D01*
X166329Y3172145D01*
X171102Y3172901D01*
X175893Y3173542D01*
X180697Y3174066D01*
X185513Y3174475D01*
X190337Y3174766D01*
X195167Y3174942D01*
X200000Y3175000D01*
X8436000Y3175000D01*
X8440833Y3174942D01*
X8445663Y3174766D01*
X8450487Y3174475D01*
X8455303Y3174066D01*
X8460107Y3173542D01*
X8464898Y3172901D01*
X8469671Y3172145D01*
X8474425Y3171274D01*
X8479157Y3170288D01*
X8483863Y3169188D01*
X8488541Y3167975D01*
X8493189Y3166649D01*
X8497803Y3165211D01*
X8502382Y3163662D01*
X8506921Y3162003D01*
X8511419Y3160235D01*
X8515873Y3158358D01*
X8520280Y3156375D01*
X8524638Y3154285D01*
X8528945Y3152091D01*
X8533197Y3149794D01*
X8537392Y3147394D01*
X8541528Y3144894D01*
X8545603Y3142294D01*
X8549613Y3139597D01*
X8553557Y3136803D01*
X8557433Y3133916D01*
X8561237Y3130935D01*
X8564968Y3127863D01*
X8568625Y3124702D01*
X8572203Y3121454D01*
X8575702Y3118120D01*
X8579120Y3114702D01*
X8582454Y3111203D01*
X8585702Y3107625D01*
X8588863Y3103968D01*
X8591935Y3100237D01*
X8594916Y3096433D01*
X8597803Y3092557D01*
X8600597Y3088613D01*
X8603294Y3084603D01*
X8605894Y3080528D01*
X8608394Y3076392D01*
X8610794Y3072197D01*
X8613091Y3067945D01*
X8615285Y3063638D01*
X8617375Y3059280D01*
X8619358Y3054873D01*
X8621235Y3050419D01*
X8623003Y3045921D01*
X8624662Y3041382D01*
X8626211Y3036803D01*
X8627649Y3032189D01*
X8628975Y3027541D01*
X8630188Y3022863D01*
X8631288Y3018157D01*
X8632274Y3013425D01*
X8633145Y3008671D01*
X8633901Y3003898D01*
X8634542Y2999107D01*
X8635066Y2994303D01*
X8635475Y2989487D01*
X8635766Y2984663D01*
X8635942Y2979833D01*
X8636000Y2975000D01*
X8636000Y200000D01*
X8635942Y195167D01*
X8635766Y190337D01*
X8635475Y185513D01*
X8635066Y180697D01*
X8634542Y175893D01*
X8633901Y171102D01*
X8633145Y166329D01*
X8632274Y161575D01*
X8631288Y156843D01*
X8630188Y152137D01*
X8628975Y147459D01*
X8627649Y142811D01*
X8626211Y138197D01*
X8624662Y133618D01*
X8623003Y129079D01*
X8621235Y124581D01*
X8619358Y120127D01*
X8617375Y115720D01*
X8615285Y111362D01*
X8613091Y107055D01*
X8610794Y102803D01*
X8608394Y98608D01*
X8605894Y94472D01*
X8603294Y90397D01*
X8600597Y86387D01*
X8597803Y82443D01*
X8594916Y78567D01*
X8591935Y74763D01*
X8588863Y71032D01*
X8585702Y67375D01*
X8582454Y63797D01*
X8579120Y60298D01*
X8575702Y56880D01*
X8572203Y53546D01*
X8568625Y50298D01*
X8564968Y47137D01*
X8561237Y44065D01*
X8557433Y41084D01*
X8553557Y38197D01*
X8549613Y35403D01*
X8545603Y32706D01*
X8541528Y30106D01*
X8537392Y27606D01*
X8533197Y25206D01*
X8528945Y22909D01*
X8524638Y20715D01*
X8520280Y18625D01*
X8515873Y16642D01*
X8511419Y14765D01*
X8506921Y12997D01*
X8502382Y11338D01*
X8497803Y9789D01*
X8493189Y8351D01*
X8488541Y7025D01*
X8483863Y5812D01*
X8479157Y4712D01*
X8474425Y3726D01*
X8469671Y2855D01*
X8464898Y2099D01*
X8460107Y1458D01*
X8455303Y934D01*
X8450487Y525D01*
X8445663Y234D01*
X8440833Y58D01*
X8436000Y0D01*
X200000Y0D01*
X195167Y58D01*
X190337Y234D01*
X185513Y525D01*
X180697Y934D01*
X175893Y1458D01*
X171102Y2099D01*
X166329Y2855D01*
X161575Y3726D01*
X156843Y4712D01*
X152137Y5812D01*
X147459Y7025D01*
X142811Y8351D01*
X138197Y9789D01*
X133618Y11338D01*
X129079Y12997D01*
X124581Y14765D01*
X120127Y16642D01*
X115720Y18625D01*
X111362Y20715D01*
X107055Y22909D01*
X102803Y25206D01*
X98608Y27606D01*
X94472Y30106D01*
X90397Y32706D01*
X86387Y35403D01*
X82443Y38197D01*
X78567Y41084D01*
X74763Y44065D01*
X71032Y47137D01*
X67375Y50298D01*
X63797Y53546D01*
X60298Y56880D01*
X56880Y60298D01*
X53546Y63797D01*
X50298Y67375D01*
X47137Y71032D01*
X44065Y74763D01*
X41084Y78567D01*
X38197Y82443D01*
X35403Y86387D01*
X32706Y90397D01*
X30106Y94472D01*
X27606Y98608D01*
X25206Y102803D01*
X22909Y107055D01*
X20715Y111362D01*
X18625Y115720D01*
X16642Y120127D01*
X14765Y124581D01*
X12997Y129079D01*
X11338Y133618D01*
X9789Y138197D01*
X8351Y142811D01*
X7025Y147459D01*
X5812Y152137D01*
X4712Y156843D01*
X3726Y161575D01*
X2855Y166329D01*
X2099Y171102D01*
X1458Y175893D01*
X934Y180697D01*
X525Y185513D01*
X234Y190337D01*
X58Y195167D01*
X0Y200000D01*
M02*
