G04 EAGLE Gerber RS-274X export*
G75*
%MOMM*%
%FSLAX25Y25*%
%LPD*%
%AMOC8*
5,1,8,0,0,1.08239X$1,22.5*%
G01*
%ADD10C,0.152400*%


D10*
X8521700Y1219200D02*
X8521700Y660400D01*
X7899400Y660400D01*
X7899400Y939800D01*
X7899400Y1219200D01*
X8521700Y1219200D01*
X8521700Y939800D02*
X7899400Y939800D01*
X7899400Y660400D02*
X7696200Y660400D01*
X7696200Y1219200D01*
X7899400Y1219200D01*
X7853680Y807438D02*
X7745307Y807438D01*
X7799493Y861624D02*
X7799493Y753251D01*
X7805138Y1014307D02*
X7805138Y1122680D01*
X7696200Y1219200D02*
X7454900Y1219200D01*
X7454900Y660400D01*
X7696200Y660400D01*
X7528560Y1057769D02*
X7527578Y1057781D01*
X7526597Y1057816D01*
X7525616Y1057876D01*
X7524638Y1057959D01*
X7523661Y1058065D01*
X7522688Y1058195D01*
X7521718Y1058349D01*
X7520752Y1058526D01*
X7519791Y1058726D01*
X7518834Y1058950D01*
X7517884Y1059196D01*
X7516939Y1059466D01*
X7516002Y1059758D01*
X7515071Y1060073D01*
X7514149Y1060410D01*
X7513235Y1060769D01*
X7512330Y1061151D01*
X7511434Y1061554D01*
X7510549Y1061978D01*
X7509674Y1062424D01*
X7508810Y1062891D01*
X7507957Y1063379D01*
X7507117Y1063887D01*
X7506289Y1064415D01*
X7505474Y1064963D01*
X7504672Y1065531D01*
X7503885Y1066117D01*
X7503112Y1066723D01*
X7502354Y1067347D01*
X7501611Y1067990D01*
X7500884Y1068650D01*
X7500172Y1069327D01*
X7499478Y1070021D01*
X7498801Y1070733D01*
X7498141Y1071460D01*
X7497498Y1072203D01*
X7496874Y1072961D01*
X7496268Y1073734D01*
X7495682Y1074521D01*
X7495114Y1075323D01*
X7494566Y1076138D01*
X7494038Y1076966D01*
X7493530Y1077806D01*
X7493042Y1078659D01*
X7492575Y1079523D01*
X7492129Y1080398D01*
X7491705Y1081283D01*
X7491302Y1082179D01*
X7490920Y1083084D01*
X7490561Y1083998D01*
X7490224Y1084920D01*
X7489909Y1085851D01*
X7489617Y1086788D01*
X7489347Y1087733D01*
X7489101Y1088683D01*
X7488877Y1089640D01*
X7488677Y1090601D01*
X7488500Y1091567D01*
X7488346Y1092537D01*
X7488216Y1093510D01*
X7488110Y1094487D01*
X7488027Y1095465D01*
X7487967Y1096446D01*
X7487932Y1097427D01*
X7487920Y1098409D01*
X7487935Y1099672D01*
X7487981Y1100933D01*
X7488057Y1102194D01*
X7488164Y1103452D01*
X7488301Y1104707D01*
X7488469Y1105959D01*
X7488666Y1107206D01*
X7488894Y1108448D01*
X7489152Y1109684D01*
X7489439Y1110913D01*
X7489757Y1112135D01*
X7490103Y1113349D01*
X7490479Y1114555D01*
X7490884Y1115751D01*
X7491318Y1116937D01*
X7491780Y1118112D01*
X7492271Y1119275D01*
X7492790Y1120426D01*
X7493336Y1121565D01*
X7493909Y1122690D01*
X7494510Y1123800D01*
X7495137Y1124896D01*
X7495791Y1125976D01*
X7496471Y1127040D01*
X7497176Y1128088D01*
X7497906Y1129118D01*
X7498661Y1130130D01*
X7499440Y1131123D01*
X7500243Y1132098D01*
X7501070Y1133053D01*
X7501919Y1133987D01*
X7502790Y1134901D01*
X7503684Y1135793D01*
X7504599Y1136663D01*
X7505534Y1137511D01*
X7506490Y1138337D01*
X7507465Y1139138D01*
X7508460Y1139916D01*
X7509473Y1140670D01*
X7510504Y1141399D01*
X7511552Y1142103D01*
X7512617Y1142781D01*
X7513698Y1143434D01*
X7514794Y1144060D01*
X7515906Y1144659D01*
X7517031Y1145231D01*
X7518170Y1145776D01*
X7519322Y1146293D01*
X7520486Y1146783D01*
X7521662Y1147244D01*
X7522848Y1147676D01*
X7524045Y1148079D01*
X7560169Y1071316D02*
X7559421Y1070549D01*
X7558654Y1069801D01*
X7557869Y1069072D01*
X7557067Y1068363D01*
X7556247Y1067674D01*
X7555411Y1067004D01*
X7554558Y1066356D01*
X7553690Y1065729D01*
X7552807Y1065123D01*
X7551909Y1064539D01*
X7550997Y1063977D01*
X7550072Y1063438D01*
X7549133Y1062921D01*
X7548182Y1062428D01*
X7547220Y1061958D01*
X7546246Y1061512D01*
X7545261Y1061090D01*
X7544267Y1060693D01*
X7543263Y1060320D01*
X7542250Y1059971D01*
X7541229Y1059648D01*
X7540200Y1059350D01*
X7539164Y1059077D01*
X7538122Y1058829D01*
X7537074Y1058607D01*
X7536021Y1058411D01*
X7534964Y1058241D01*
X7533902Y1058097D01*
X7532838Y1057979D01*
X7531771Y1057887D01*
X7530701Y1057822D01*
X7529631Y1057782D01*
X7528560Y1057769D01*
X7560169Y1071316D02*
X7650480Y1148080D01*
X7650480Y1057769D01*
X7614356Y991768D02*
X7487920Y955643D01*
X7614356Y991768D02*
X7614356Y901457D01*
X7578231Y928550D02*
X7650480Y928550D01*
X7650480Y790300D02*
X7487920Y844487D01*
X7487920Y736113D02*
X7650480Y790300D01*
M02*
